Moderustic-Bold.ufo
<glyph name="three" format="2">
  <advance width="578"/>
  <unicode hex="0033"/>
  <outline>
    <contour>
      <point x="24" y="84" type="line"/>
      <point x="87" y="17"/>
      <point x="173" y="-19"/>
      <point x="290" y="-19" type="curve" smooth="yes"/>
      <point x="473" y="-19"/>
      <point x="542" y="69"/>
      <point x="542" y="182" type="curve" smooth="yes"/>
      <point x="542" y="325"/>
      <point x="430" y="388"/>
      <point x="192" y="368" type="curve"/>
      <point x="192" y="288" type="line"/>
      <point x="321" y="288"/>
      <point x="377" y="263"/>
      <point x="377" y="195" type="curve" smooth="yes"/>
      <point x="377" y="139"/>
      <point x="338" y="111"/>
      <point x="274" y="111" type="curve" smooth="yes"/>
      <point x="217" y="111"/>
      <point x="173" y="133"/>
      <point x="122" y="182" type="curve"/>
    </contour>
    <contour>
      <point x="280" y="589" type="curve" smooth="yes"/>
      <point x="330" y="589"/>
      <point x="355" y="568"/>
      <point x="355" y="524" type="curve" smooth="yes"/>
      <point x="355" y="480"/>
      <point x="328" y="439"/>
      <point x="192" y="439" type="curve"/>
      <point x="192" y="361" type="line"/>
      <point x="439" y="351"/>
      <point x="520" y="430"/>
      <point x="520" y="533" type="curve" smooth="yes"/>
      <point x="520" y="629"/>
      <point x="449" y="720"/>
      <point x="286" y="720" type="curve" smooth="yes"/>
      <point x="155" y="720"/>
      <point x="80" y="665"/>
      <point x="42" y="628" type="curve"/>
      <point x="140" y="530" type="line"/>
      <point x="193" y="568"/>
      <point x="225" y="589"/>
    </contour>
  </outline>
</glyph>
<glyph name="six" format="2">
  <advance width="631"/>
  <unicode hex="0036"/>
  <outline>
    <contour>
      <point x="345" y="589" type="curve" smooth="yes"/>
      <point x="400" y="589"/>
      <point x="443.888" y="567.23"/>
      <point x="485" y="530" type="curve"/>
      <point x="583" y="628" type="line"/>
      <point x="545" y="665"/>
      <point x="470" y="720"/>
      <point x="339" y="720" type="curve" smooth="yes"/>
      <point x="144" y="720"/>
      <point x="28" y="581"/>
      <point x="28" y="338" type="curve" smooth="yes"/>
      <point x="28" y="103"/>
      <point x="133" y="-20"/>
      <point x="319" y="-20" type="curve" smooth="yes"/>
      <point x="491" y="-20"/>
      <point x="599" y="86"/>
      <point x="599" y="228" type="curve" smooth="yes"/>
      <point x="599" y="372"/>
      <point x="493" y="458"/>
      <point x="359" y="458" type="curve" smooth="yes"/>
      <point x="267.063" y="458"/>
      <point x="187.983" y="418.001"/>
      <point x="163.751" y="346.555" type="curve"/>
      <point x="179.39" y="338.906" type="line"/>
      <point x="173.575" y="499.134"/>
      <point x="232.986" y="589"/>
    </contour>
    <contour>
      <point x="212" y="217" type="curve" smooth="yes"/>
      <point x="212" y="291"/>
      <point x="256" y="338"/>
      <point x="327" y="338" type="curve" smooth="yes"/>
      <point x="395" y="338"/>
      <point x="434" y="295"/>
      <point x="434" y="228" type="curve" smooth="yes"/>
      <point x="434" y="155"/>
      <point x="389" y="110"/>
      <point x="317" y="110" type="curve" smooth="yes"/>
      <point x="251" y="110"/>
      <point x="212" y="148"/>
    </contour>
  </outline>
</glyph>
<glyph name="C" format="2">
  <advance width="694"/>
  <unicode hex="0043"/>
  <anchor x="416" y="-20" name="bottom"/>
  <anchor x="386" y="719" name="top"/>
  <outline>
    <contour>
      <point x="396" y="-20" type="curve" smooth="yes"/>
      <point x="516" y="-20"/>
      <point x="591" y="28"/>
      <point x="662" y="107" type="curve"/>
      <point x="567" y="202" type="line"/>
      <point x="518.266" y="144"/>
      <point x="455.609" y="110"/>
      <point x="389.967" y="110" type="curve" smooth="yes"/>
      <point x="277.582" y="110"/>
      <point x="201" y="209"/>
      <point x="201" y="358" type="curve" smooth="yes"/>
      <point x="201" y="499"/>
      <point x="269.622" y="589"/>
      <point x="383.992" y="589" type="curve" smooth="yes"/>
      <point x="450.625" y="589"/>
      <point x="515.268" y="559"/>
      <point x="564" y="501" type="curve"/>
      <point x="659" y="596" type="line"/>
      <point x="598" y="670"/>
      <point x="505" y="720"/>
      <point x="381" y="720" type="curve" smooth="yes"/>
      <point x="168" y="720"/>
      <point x="33" y="573"/>
      <point x="33" y="360" type="curve" smooth="yes"/>
      <point x="33" y="139"/>
      <point x="178" y="-20"/>
    </contour>
  </outline>
</glyph>
<glyph name="E" format="2">
  <advance width="550"/>
  <unicode hex="0045"/>
  <anchor x="275" y="719" name="top"/>
  <anchor x="286" y="-20" name="bottom"/>
  <anchor x="498" y="-2" name="ogonek"/>
  <anchor x="-50" y="500" name="topgr"/>
  <outline>
    <contour>
      <point x="505" y="0" type="line"/>
      <point x="505" y="130" type="line"/>
      <point x="234" y="130" type="line"/>
      <point x="234" y="300" type="line"/>
      <point x="465" y="300" type="line"/>
      <point x="465" y="430" type="line"/>
      <point x="234" y="430" type="line"/>
      <point x="234" y="570" type="line"/>
      <point x="490" y="570" type="line"/>
      <point x="490" y="700" type="line"/>
      <point x="68" y="700" type="line"/>
      <point x="68" y="0" type="line"/>
    </contour>
  </outline>
</glyph>
<glyph name="L" format="2">
  <advance width="554"/>
  <unicode hex="004C"/>
  <anchor x="151" y="719" name="top"/>
  <anchor x="277" y="-20" name="bottom"/>
  <outline>
    <contour>
      <point x="68" y="0" type="line"/>
      <point x="514" y="0" type="line"/>
      <point x="514" y="130" type="line"/>
      <point x="234" y="130" type="line"/>
      <point x="234" y="700" type="line"/>
      <point x="68" y="700" type="line"/>
    </contour>
  </outline>
</glyph>
<glyph name="R" format="2">
  <advance width="648"/>
  <unicode hex="0052"/>
  <anchor x="324" y="719" name="top"/>
  <anchor x="324" y="-20" name="bottom"/>
  <outline>
    <contour>
      <point x="234" y="0" type="line"/>
      <point x="234" y="570" type="line"/>
      <point x="314" y="570" type="line" smooth="yes"/>
      <point x="410" y="570"/>
      <point x="442" y="537"/>
      <point x="442" y="472" type="curve" smooth="yes"/>
      <point x="442" y="407"/>
      <point x="410" y="374"/>
      <point x="314" y="374" type="curve" smooth="yes"/>
      <point x="100" y="374" type="line"/>
      <point x="100" y="244" type="line"/>
      <point x="348" y="244" type="line" smooth="yes"/>
      <point x="507" y="244"/>
      <point x="609" y="334"/>
      <point x="609" y="476" type="curve" smooth="yes"/>
      <point x="609" y="615"/>
      <point x="511" y="700"/>
      <point x="348" y="700" type="curve" smooth="yes"/>
      <point x="68" y="700" type="line"/>
      <point x="68" y="0" type="line"/>
    </contour>
    <contour>
      <point x="306" y="281" type="line"/>
      <point x="449" y="0" type="line"/>
      <point x="627" y="0" type="line"/>
      <point x="457" y="333" type="line"/>
    </contour>
  </outline>
</glyph>
<glyph name="S" format="2">
  <advance width="600"/>
  <unicode hex="0053"/>
  <anchor x="310" y="-20" name="bottom"/>
  <anchor x="286" y="719" name="top"/>
  <outline>
    <contour>
      <point x="310" y="-20" type="curve" smooth="yes"/>
      <point x="180" y="-20"/>
      <point x="90" y="32"/>
      <point x="30" y="104" type="curve"/>
      <point x="125" y="199" type="line"/>
      <point x="171.17" y="144"/>
      <point x="232.396" y="111"/>
      <point x="300.648" y="111" type="curve" smooth="yes"/>
      <point x="362.878" y="111"/>
      <point x="396" y="138"/>
      <point x="396" y="191" type="curve" smooth="yes"/>
      <point x="396" y="238"/>
      <point x="369.958" y="257.139"/>
      <point x="280.678" y="277" type="curve" smooth="yes"/>
      <point x="109.23" y="315.139"/>
      <point x="38" y="386"/>
      <point x="38" y="498" type="curve" smooth="yes"/>
      <point x="38" y="635"/>
      <point x="133" y="720"/>
      <point x="287" y="720" type="curve" smooth="yes"/>
      <point x="407" y="720"/>
      <point x="497" y="668"/>
      <point x="557" y="596" type="curve"/>
      <point x="462" y="501" type="line"/>
      <point x="415.822" y="556"/>
      <point x="354.585" y="589"/>
      <point x="294.353" y="589" type="curve" smooth="yes"/>
      <point x="232.112" y="589"/>
      <point x="203" y="553"/>
      <point x="203" y="501" type="curve" smooth="yes"/>
      <point x="203" y="442"/>
      <point x="240.087" y="419.922"/>
      <point x="336.373" y="399" type="curve" smooth="yes"/>
      <point x="497.807" y="363.922"/>
      <point x="561" y="298"/>
      <point x="561" y="197" type="curve" smooth="yes"/>
      <point x="561" y="61"/>
      <point x="473" y="-20"/>
    </contour>
  </outline>
</glyph>
<glyph name="W" format="2">
  <advance width="960"/>
  <unicode hex="0057"/>
  <anchor x="480" y="719" name="top"/>
  <anchor x="480" y="-20" name="bottom"/>
  <outline>
    <contour>
      <point x="203" y="0" type="line"/>
      <point x="340" y="0" type="line"/>
      <point x="175" y="700" type="line"/>
      <point x="2" y="700" type="line"/>
    </contour>
    <contour>
      <point x="237" y="0" type="line"/>
      <point x="371" y="0" type="line"/>
      <point x="536" y="700" type="line"/>
      <point x="402" y="700" type="line"/>
    </contour>
    <contour>
      <point x="590" y="0" type="line"/>
      <point x="724" y="0" type="line"/>
      <point x="559" y="700" type="line"/>
      <point x="425" y="700" type="line"/>
    </contour>
    <contour>
      <point x="621" y="0" type="line"/>
      <point x="758" y="0" type="line"/>
      <point x="959" y="700" type="line"/>
      <point x="786" y="700" type="line"/>
    </contour>
  </outline>
</glyph>
<glyph name="e" format="2">
  <advance width="598"/>
  <unicode hex="0065"/>
  <anchor x="299" y="520" name="top"/>
  <anchor x="299" y="-20" name="bottom"/>
  <anchor x="425" y="-3" name="ogonek"/>
  <outline>
    <contour>
      <point x="198" y="332" type="line"/>
      <point x="204" y="367.896"/>
      <point x="242" y="397"/>
      <point x="300.688" y="397" type="curve" smooth="yes"/>
      <point x="353" y="397"/>
      <point x="397.698" y="373.875"/>
      <point x="403" y="332" type="curve"/>
    </contour>
    <contour>
      <point x="320" y="103" type="curve" smooth="yes"/>
      <point x="242" y="103"/>
      <point x="200" y="138"/>
      <point x="196" y="212" type="curve"/>
      <point x="571" y="212" type="line"/>
      <point x="582.595" y="404.026"/>
      <point x="481.306" y="520"/>
      <point x="302" y="520" type="curve" smooth="yes"/>
      <point x="143" y="520"/>
      <point x="28" y="420"/>
      <point x="28" y="254" type="curve" smooth="yes"/>
      <point x="28" y="85"/>
      <point x="147" y="-20"/>
      <point x="315" y="-20" type="curve" smooth="yes"/>
      <point x="407" y="-20"/>
      <point x="487" y="12"/>
      <point x="537" y="73" type="curve"/>
      <point x="452" y="158" type="line"/>
      <point x="425" y="123"/>
      <point x="379" y="103"/>
    </contour>
  </outline>
</glyph>
<glyph name="f" format="2">
  <advance width="423"/>
  <unicode hex="0066"/>
  <anchor x="240" y="750" name="top"/>
  <anchor x="183" y="-20" name="bottom"/>
  <outline>
    <contour>
      <point x="99" y="380" type="line"/>
      <point x="99" y="0" type="line"/>
      <point x="264" y="0" type="line"/>
      <point x="264" y="380" type="line"/>
      <point x="390" y="380" type="line"/>
      <point x="390" y="500" type="line"/>
      <point x="264" y="500" type="line"/>
      <point x="264" y="547" type="line" smooth="yes"/>
      <point x="264" y="593"/>
      <point x="280" y="627"/>
      <point x="322" y="627" type="curve" smooth="yes"/>
      <point x="334" y="627"/>
      <point x="358" y="624"/>
      <point x="376" y="617" type="curve"/>
      <point x="406" y="728" type="line"/>
      <point x="347" y="746"/>
      <point x="317" y="751"/>
      <point x="283" y="751" type="curve" smooth="yes"/>
      <point x="168" y="751"/>
      <point x="99" y="694"/>
      <point x="99" y="588" type="curve" smooth="yes"/>
      <point x="99" y="500" type="line"/>
      <point x="22" y="500" type="line"/>
      <point x="22" y="380" type="line"/>
    </contour>
  </outline>
</glyph>
<glyph name="g" format="2">
  <advance width="634"/>
  <unicode hex="0067"/>
  <anchor x="308" y="-220" name="bottom"/>
  <anchor x="317" y="520" name="top"/>
  <outline>
    <contour>
      <point x="447" y="257" type="curve" smooth="yes"/>
      <point x="447" y="421"/>
      <point x="379" y="520"/>
      <point x="254" y="520" type="curve" smooth="yes"/>
      <point x="123" y="520"/>
      <point x="49" y="411"/>
      <point x="49" y="259" type="curve" smooth="yes"/>
      <point x="49" y="99"/>
      <point x="132" y="-20"/>
      <point x="257" y="-20" type="curve" smooth="yes"/>
      <point x="377" y="-20"/>
      <point x="447" y="90"/>
    </contour>
    <contour>
      <point x="214" y="257" type="curve" smooth="yes"/>
      <point x="214" y="344"/>
      <point x="251.184" y="393"/>
      <point x="311.483" y="393" type="curve" smooth="yes"/>
      <point x="376.806" y="393"/>
      <point x="415" y="337"/>
      <point x="415" y="251" type="curve" smooth="yes"/>
      <point x="415" y="166"/>
      <point x="377.811" y="106"/>
      <point x="316.507" y="106" type="curve" smooth="yes"/>
      <point x="255.204" y="106"/>
      <point x="214" y="165"/>
    </contour>
    <contour>
      <point x="297.447" y="-220" type="curve" smooth="yes"/>
      <point x="471.787" y="-220"/>
      <point x="580" y="-121"/>
      <point x="580" y="52" type="curve" smooth="yes"/>
      <point x="580" y="500" type="line"/>
      <point x="415" y="500" type="line"/>
      <point x="415" y="68" type="line" smooth="yes"/>
      <point x="415" y="-56"/>
      <point x="355" y="-97"/>
      <point x="279" y="-97" type="curve" smooth="yes"/>
      <point x="226" y="-97"/>
      <point x="180" y="-77"/>
      <point x="153" y="-42" type="curve"/>
      <point x="68" y="-127" type="line"/>
      <point x="118.098" y="-188"/>
      <point x="198.254" y="-220"/>
    </contour>
  </outline>
</glyph>
<glyph name="h" format="2">
  <advance width="635"/>
  <unicode hex="0068"/>
  <anchor x="318" y="-20" name="bottom"/>
  <anchor x="141" y="750" name="top"/>
  <outline>
    <contour>
      <point x="59" y="0" type="line"/>
      <point x="224" y="0" type="line"/>
      <point x="224" y="750" type="line"/>
      <point x="59" y="750" type="line"/>
    </contour>
    <contour>
      <point x="212" y="278" type="line"/>
      <point x="224" y="217" type="line"/>
      <point x="224" y="312"/>
      <point x="260" y="396"/>
      <point x="337" y="396" type="curve" smooth="yes"/>
      <point x="383" y="396"/>
      <point x="411" y="367"/>
      <point x="411" y="272" type="curve" smooth="yes"/>
      <point x="411" y="0" type="line"/>
      <point x="576" y="0" type="line"/>
      <point x="576" y="304" type="line" smooth="yes"/>
      <point x="576" y="448"/>
      <point x="515" y="520"/>
      <point x="400" y="520" type="curve" smooth="yes"/>
      <point x="291" y="520"/>
      <point x="227" y="428"/>
      <point x="210" y="350" type="curve"/>
    </contour>
  </outline>
</glyph>
<glyph name="k" format="2">
  <advance width="594"/>
  <unicode hex="006B"/>
  <anchor x="297" y="-20" name="bottom"/>
  <anchor x="146" y="750" name="top"/>
  <outline>
    <contour>
      <point x="229" y="0" type="line"/>
      <point x="229" y="750" type="line"/>
      <point x="64" y="750" type="line"/>
      <point x="64" y="0" type="line"/>
    </contour>
    <contour>
      <point x="313" y="319" type="line" name="iv02"/>
      <point x="119" y="319" type="line"/>
      <point x="120" y="199" type="line"/>
      <point x="306" y="199" type="line" name="iv01"/>
      <point x="399" y="0" type="line" name="ab02"/>
      <point x="587" y="0" type="line"/>
      <point x="446" y="265" type="line"/>
      <point x="571" y="500" type="line" name="av02"/>
      <point x="398" y="500" type="line"/>
    </contour>
  </outline>
</glyph>
<glyph name="o" format="2">
  <advance width="616"/>
  <unicode hex="006F"/>
  <anchor x="417" y="-3" name="ogonek"/>
  <anchor x="308" y="520" name="top"/>
  <anchor x="308" y="-20" name="bottom"/>
  <anchor x="308" y="520" name="topgr"/>
  <outline>
    <contour>
      <point x="39" y="255" type="curve" smooth="yes"/>
      <point x="39" y="89"/>
      <point x="147" y="-20"/>
      <point x="308" y="-20" type="curve" smooth="yes"/>
      <point x="473" y="-20"/>
      <point x="577" y="80"/>
      <point x="577" y="255" type="curve" smooth="yes"/>
      <point x="577" y="431"/>
      <point x="469" y="520"/>
      <point x="308" y="520" type="curve" smooth="yes"/>
      <point x="155" y="520"/>
      <point x="39" y="429"/>
    </contour>
    <contour>
      <point x="412" y="252" type="curve" smooth="yes"/>
      <point x="412" y="156"/>
      <point x="374" y="103"/>
      <point x="305" y="103" type="curve" smooth="yes"/>
      <point x="239" y="103"/>
      <point x="204" y="155"/>
      <point x="204" y="254" type="curve" smooth="yes"/>
      <point x="204" y="349"/>
      <point x="238" y="396"/>
      <point x="306" y="396" type="curve" smooth="yes"/>
      <point x="376" y="396"/>
      <point x="412" y="347"/>
    </contour>
  </outline>
</glyph>
<glyph name="sterling" format="2">
  <advance width="634"/>
  <unicode hex="00A3"/>
  <outline>
    <contour>
      <point x="21" y="369" type="line"/>
      <point x="21" y="289" type="line"/>
      <point x="495" y="289" type="line"/>
      <point x="495" y="369" type="line"/>
    </contour>
    <contour>
      <point x="320" y="589" type="curve" smooth="yes"/>
      <point x="378" y="589"/>
      <point x="439" y="561"/>
      <point x="488" y="504" type="curve"/>
      <point x="583" y="599" type="line"/>
      <point x="514" y="684"/>
      <point x="418" y="720"/>
      <point x="317" y="720" type="curve" smooth="yes"/>
      <point x="163" y="720"/>
      <point x="57" y="637"/>
      <point x="57" y="518" type="curve" smooth="yes"/>
      <point x="57" y="462"/>
      <point x="81" y="407"/>
      <point x="114" y="347" type="curve" smooth="yes"/>
      <point x="137" y="305"/>
      <point x="162" y="265"/>
      <point x="162" y="210" type="curve" smooth="yes"/>
      <point x="162" y="130"/>
      <point x="110" y="86"/>
      <point x="50" y="46" type="curve"/>
      <point x="50" y="-44" type="line"/>
      <point x="109" y="32"/>
      <point x="144" y="50"/>
      <point x="182" y="50" type="curve" smooth="yes"/>
      <point x="261" y="50"/>
      <point x="294" y="-26"/>
      <point x="408" y="-26" type="curve" smooth="yes"/>
      <point x="504" y="-26"/>
      <point x="585" y="27"/>
      <point x="614" y="112" type="curve"/>
      <point x="594" y="144" type="line"/>
      <point x="582" y="119"/>
      <point x="529" y="82"/>
      <point x="459" y="82" type="curve" smooth="yes"/>
      <point x="367" y="82"/>
      <point x="383" y="145"/>
      <point x="295" y="147" type="curve"/>
      <point x="310" y="170"/>
      <point x="328" y="199"/>
      <point x="328" y="241" type="curve" smooth="yes"/>
      <point x="328" y="343"/>
      <point x="222" y="405"/>
      <point x="222" y="502" type="curve" smooth="yes"/>
      <point x="222" y="565"/>
      <point x="266" y="589"/>
    </contour>
  </outline>
</glyph>
<glyph name="registered" format="2">
  <advance width="817"/>
  <unicode hex="00AE"/>
  <outline>
    <contour>
      <point x="412" y="12" type="curve" smooth="yes"/>
      <point x="590" y="12"/>
      <point x="774" y="138"/>
      <point x="774" y="355" type="curve" smooth="yes"/>
      <point x="774" y="572"/>
      <point x="597" y="688"/>
      <point x="412" y="688" type="curve" smooth="yes"/>
      <point x="228" y="688"/>
      <point x="45" y="573"/>
      <point x="45" y="355" type="curve" smooth="yes"/>
      <point x="45" y="137"/>
      <point x="234" y="12"/>
    </contour>
    <contour>
      <point x="410" y="628" type="curve" smooth="yes"/>
      <point x="586" y="628"/>
      <point x="714" y="514"/>
      <point x="714" y="350" type="curve" smooth="yes"/>
      <point x="714" y="186"/>
      <point x="574" y="72"/>
      <point x="410" y="72" type="curve" smooth="yes"/>
      <point x="244" y="72"/>
      <point x="105" y="195"/>
      <point x="105" y="354" type="curve" smooth="yes"/>
      <point x="105" y="513"/>
      <point x="232" y="628"/>
    </contour>
    <contour>
      <point x="356.4" y="150" type="line"/>
      <point x="356.4" y="469.2" type="line"/>
      <point x="404.4" y="469.2" type="line" smooth="yes"/>
      <point x="462" y="469.2"/>
      <point x="481.2" y="450.72"/>
      <point x="481.2" y="414.32" type="curve" smooth="yes"/>
      <point x="481.2" y="377.92"/>
      <point x="462" y="359.44"/>
      <point x="404.4" y="359.44" type="curve" smooth="yes"/>
      <point x="276" y="359.44" type="line"/>
      <point x="276" y="286.64" type="line"/>
      <point x="424.8" y="286.64" type="line" smooth="yes"/>
      <point x="520.2" y="286.64"/>
      <point x="581.4" y="337.04"/>
      <point x="581.4" y="416.56" type="curve" smooth="yes"/>
      <point x="581.4" y="494.4"/>
      <point x="522.6" y="542"/>
      <point x="424.8" y="542" type="curve" smooth="yes"/>
      <point x="256.8" y="542" type="line"/>
      <point x="256.8" y="150" type="line"/>
    </contour>
    <contour>
      <point x="401.6" y="307.36" type="line"/>
      <point x="487.4" y="150" type="line"/>
      <point x="594.2" y="150" type="line"/>
      <point x="492.2" y="336.48" type="line"/>
    </contour>
  </outline>
</glyph>
<glyph name="degree" format="2">
  <advance width="483"/>
  <unicode hex="00B0"/>
  <outline>
    <contour>
      <point x="57" y="556" type="curve" smooth="yes"/>
      <point x="57" y="458"/>
      <point x="140" y="390"/>
      <point x="248" y="390" type="curve" smooth="yes"/>
      <point x="355" y="390"/>
      <point x="428" y="458"/>
      <point x="428" y="556" type="curve" smooth="yes"/>
      <point x="428" y="653"/>
      <point x="357" y="719"/>
      <point x="248" y="719" type="curve" smooth="yes"/>
      <point x="139" y="719"/>
      <point x="57" y="653"/>
    </contour>
    <contour>
      <point x="154" y="555" type="curve" smooth="yes"/>
      <point x="154" y="622"/>
      <point x="194" y="648"/>
      <point x="244" y="648" type="curve" smooth="yes"/>
      <point x="294" y="648"/>
      <point x="332" y="622"/>
      <point x="332" y="555" type="curve" smooth="yes"/>
      <point x="332" y="488"/>
      <point x="295" y="461"/>
      <point x="244" y="461" type="curve" smooth="yes"/>
      <point x="193" y="461"/>
      <point x="154" y="488"/>
    </contour>
  </outline>
</glyph>
<glyph name="AE" format="2">
  <advance width="880"/>
  <unicode hex="00C6"/>
  <anchor x="480" y="719" name="top"/>
  <anchor x="480" y="-20" name="bottom"/>
  <outline>
    <contour>
      <point x="835" y="0" type="line"/>
      <point x="835" y="130" type="line"/>
      <point x="564" y="130" type="line"/>
      <point x="564" y="300" type="line"/>
      <point x="795" y="300" type="line"/>
      <point x="795" y="430" type="line"/>
      <point x="564" y="430" type="line"/>
      <point x="564" y="570" type="line"/>
      <point x="820" y="570" type="line"/>
      <point x="820" y="700" type="line"/>
      <point x="398" y="700" type="line"/>
      <point x="398" y="0" type="line"/>
    </contour>
    <contour>
      <point x="213" y="570" type="line"/>
      <point x="499" y="570" type="line"/>
      <point x="500" y="700" type="line"/>
      <point x="257" y="700" type="line"/>
    </contour>
    <contour>
      <point x="193" y="111" type="line"/>
      <point x="527" y="111" type="line"/>
      <point x="483" y="241" type="line"/>
      <point x="237" y="241" type="line"/>
    </contour>
    <contour>
      <point x="234" y="700" type="line"/>
      <point x="7" y="0" type="line"/>
      <point x="181" y="0" type="line"/>
      <point x="382" y="700" type="line"/>
    </contour>
  </outline>
</glyph>
<glyph name="Lslash" format="2">
  <advance width="554"/>
  <unicode hex="0141"/>
  <outline>
    <component base="L"/>
    <contour>
      <point x="0" y="280" type="line"/>
      <point x="0" y="231" type="line"/>
      <point x="399" y="500" type="line"/>
      <point x="399" y="549" type="line"/>
    </contour>
  </outline>
</glyph>
<glyph name="Eng" format="2">
  <advance width="752"/>
  <unicode hex="014A"/>
  <anchor x="376" y="719" name="top"/>
  <anchor x="402" y="-217" name="bottom"/>
  <outline>
    <contour>
      <point x="233" y="0" type="line"/>
      <point x="233" y="439" type="line"/>
      <point x="529" y="0" type="line"/>
      <point x="685" y="106.164" type="line"/>
      <point x="685" y="700" type="line"/>
      <point x="519" y="700" type="line"/>
      <point x="519" y="261" type="line"/>
      <point x="223" y="700" type="line"/>
      <point x="67" y="700" type="line"/>
      <point x="67" y="0" type="line"/>
    </contour>
    <contour>
      <point x="195" y="-88" type="line"/>
      <point x="254" y="-180"/>
      <point x="336" y="-230"/>
      <point x="446" y="-230" type="curve" smooth="yes"/>
      <point x="592" y="-230"/>
      <point x="685" y="-143"/>
      <point x="685" y="12" type="curve" smooth="yes"/>
      <point x="685" y="490" type="line"/>
      <point x="519" y="490" type="line"/>
      <point x="519" y="30" type="line" smooth="yes"/>
      <point x="519" y="-62"/>
      <point x="495" y="-100"/>
      <point x="437" y="-100" type="curve" smooth="yes"/>
      <point x="385" y="-100"/>
      <point x="346" y="-70"/>
      <point x="290" y="7" type="curve"/>
    </contour>
  </outline>
</glyph>
<glyph name="dotlessj" format="2">
  <advance width="300"/>
  <unicode hex="0237"/>
  <anchor x="161" y="520" name="top"/>
  <anchor x="100" y="-217" name="bottom"/>
  <outline>
    <contour>
      <point x="241" y="500" type="line"/>
      <point x="76" y="500" type="line"/>
      <point x="76" y="-8" type="line" smooth="yes"/>
      <point x="76" y="-74"/>
      <point x="70" y="-96"/>
      <point x="31" y="-96" type="curve" smooth="yes"/>
      <point x="11" y="-96"/>
      <point x="-5" y="-93"/>
      <point x="-24" y="-84" type="curve"/>
      <point x="-56" y="-198" type="line"/>
      <point x="-9" y="-212"/>
      <point x="15" y="-221"/>
      <point x="83" y="-221" type="curve" smooth="yes"/>
      <point x="178" y="-221"/>
      <point x="241" y="-174"/>
      <point x="241" y="-68" type="curve" smooth="yes"/>
    </contour>
  </outline>
</glyph>
<glyph name="schwa" format="2">
  <advance width="613"/>
  <unicode hex="0259"/>
  <anchor x="306" y="520" name="top"/>
  <anchor x="306" y="-20" name="bottom"/>
  <outline>
    <contour>
      <point x="214" y="188" type="curve"/>
      <point x="408" y="188" type="line"/>
      <point x="399" y="130"/>
      <point x="358" y="104"/>
      <point x="309" y="104" type="curve" smooth="yes"/>
      <point x="257" y="104"/>
      <point x="222" y="134"/>
    </contour>
    <contour>
      <point x="301" y="520" type="curve" smooth="yes"/>
      <point x="204" y="520"/>
      <point x="124" y="488"/>
      <point x="74" y="427" type="curve"/>
      <point x="159" y="342" type="line"/>
      <point x="186" y="377"/>
      <point x="232" y="397"/>
      <point x="283" y="397" type="curve" smooth="yes"/>
      <point x="345" y="397"/>
      <point x="401" y="367"/>
      <point x="410" y="304" type="curve"/>
      <point x="53" y="304" type="line"/>
      <point x="51" y="290"/>
      <point x="49" y="278"/>
      <point x="49" y="255" type="curve" smooth="yes"/>
      <point x="49" y="90"/>
      <point x="154" y="-20"/>
      <point x="312" y="-20" type="curve" smooth="yes"/>
      <point x="471" y="-20"/>
      <point x="574" y="92"/>
      <point x="574" y="256" type="curve" smooth="yes"/>
      <point x="574" y="418"/>
      <point x="473" y="520"/>
    </contour>
  </outline>
</glyph>
<glyph name="dieresiscomb" format="2">
  <advance width="407"/>
  <unicode hex="0308"/>
  <anchor x="204" y="669" name="top"/>
  <anchor x="204" y="500" name="_top"/>
  <anchor x="204" y="500" name="_topgr"/>
  <outline>
    <contour>
      <point x="103.716" y="532.693" type="curve" smooth="yes"/>
      <point x="156.228" y="532.693"/>
      <point x="183.866" y="572.307"/>
      <point x="183.866" y="611" type="curve" smooth="yes"/>
      <point x="183.866" y="652.457"/>
      <point x="156.228" y="689.307"/>
      <point x="103.716" y="689.307" type="curve" smooth="yes"/>
      <point x="49.3621" y="689.307"/>
      <point x="20.803" y="647.85"/>
      <point x="20.803" y="611" type="curve" smooth="yes"/>
      <point x="20.803" y="575.992"/>
      <point x="49.3621" y="532.693"/>
    </contour>
    <contour>
      <point x="305.126" y="532.693" type="curve" smooth="yes"/>
      <point x="357.638" y="532.693"/>
      <point x="386.197" y="572.307"/>
      <point x="386.197" y="611" type="curve" smooth="yes"/>
      <point x="386.197" y="652.457"/>
      <point x="357.638" y="689.307"/>
      <point x="305.126" y="689.307" type="curve" smooth="yes"/>
      <point x="250.772" y="689.307"/>
      <point x="223.134" y="647.85"/>
      <point x="223.134" y="611" type="curve" smooth="yes"/>
      <point x="223.134" y="575.992"/>
      <point x="250.772" y="532.693"/>
    </contour>
  </outline>
</glyph>
<glyph name="ringcomb" format="2">
  <advance width="270"/>
  <unicode hex="030A"/>
  <anchor x="135" y="723" name="top"/>
  <anchor x="135" y="500" name="_top"/>
  <outline>
    <contour>
      <point x="27" y="618" type="curve" smooth="yes"/>
      <point x="27" y="681"/>
      <point x="70" y="723"/>
      <point x="135" y="723" type="curve" smooth="yes"/>
      <point x="200" y="723"/>
      <point x="243" y="681"/>
      <point x="243" y="618" type="curve" smooth="yes"/>
      <point x="243" y="554"/>
      <point x="200" y="513"/>
      <point x="135" y="513" type="curve" smooth="yes"/>
      <point x="70" y="513"/>
      <point x="27" y="554"/>
    </contour>
    <contour>
      <point x="90" y="618" type="curve" smooth="yes"/>
      <point x="90" y="589"/>
      <point x="108" y="572"/>
      <point x="135" y="572" type="curve" smooth="yes"/>
      <point x="162" y="572"/>
      <point x="180" y="590"/>
      <point x="180" y="618" type="curve" smooth="yes"/>
      <point x="180" y="646"/>
      <point x="162" y="664"/>
      <point x="135" y="664" type="curve" smooth="yes"/>
      <point x="108" y="664"/>
      <point x="90" y="646"/>
    </contour>
  </outline>
</glyph>
<glyph name="hungarumlautcomb" format="2">
  <advance width="389"/>
  <unicode hex="030B"/>
  <anchor x="204" y="702" name="top"/>
  <anchor x="138" y="500" name="_top"/>
  <outline>
    <contour>
      <point x="275" y="551" type="line"/>
      <point x="375" y="702" type="line"/>
      <point x="259" y="702" type="line"/>
      <point x="199" y="551" type="line"/>
    </contour>
    <contour>
      <point x="11" y="551" type="line"/>
      <point x="87" y="551" type="line"/>
      <point x="187" y="702" type="line"/>
      <point x="71" y="702" type="line"/>
    </contour>
  </outline>
</glyph>
<glyph name="commaaccentcomb" format="2">
  <advance width="246"/>
  <unicode hex="0326"/>
  <anchor x="123" y="-248" name="bottom"/>
  <anchor x="123" y="0" name="_bottom"/>
  <outline>
    <contour>
      <point x="58" y="-118.495" type="curve" smooth="yes"/>
      <point x="58" y="-153.18"/>
      <point x="84" y="-173"/>
      <point x="113" y="-173" type="curve" smooth="yes"/>
      <point x="124" y="-173"/>
      <point x="136" y="-170"/>
      <point x="138" y="-166" type="curve"/>
      <point x="135" y="-197"/>
      <point x="108" y="-229"/>
      <point x="66" y="-250" type="curve"/>
      <point x="84" y="-277" type="line"/>
      <point x="147" y="-259.084"/>
      <point x="188" y="-199.363"/>
      <point x="188" y="-138.647" type="curve" smooth="yes"/>
      <point x="188" y="-97.8372"/>
      <point x="169" y="-63"/>
      <point x="121" y="-63" type="curve" smooth="yes"/>
      <point x="84" y="-63"/>
      <point x="58" y="-83.8108"/>
    </contour>
  </outline>
</glyph>
<glyph name="cedillacomb" format="2">
  <advance width="302"/>
  <unicode hex="0327"/>
  <anchor x="171" y="-10" name="_bottom"/>
  <anchor x="151" y="-208" name="bottom"/>
  <outline>
    <contour>
      <point x="221.224" y="29" type="line"/>
      <point x="128.224" y="29" type="line"/>
      <point x="63" y="-94" type="line"/>
      <point x="78" y="-92"/>
      <point x="96" y="-90"/>
      <point x="110" y="-90" type="curve" smooth="yes"/>
      <point x="143" y="-90"/>
      <point x="162" y="-101"/>
      <point x="162" y="-124" type="curve" smooth="yes"/>
      <point x="162" y="-145"/>
      <point x="146" y="-158"/>
      <point x="117" y="-158" type="curve" smooth="yes"/>
      <point x="99" y="-158"/>
      <point x="64" y="-153"/>
      <point x="44" y="-147" type="curve"/>
      <point x="24" y="-195" type="line"/>
      <point x="46" y="-201"/>
      <point x="79" y="-208"/>
      <point x="126" y="-208" type="curve" smooth="yes"/>
      <point x="223" y="-208"/>
      <point x="275" y="-182"/>
      <point x="275" y="-123" type="curve" smooth="yes"/>
      <point x="275" y="-77"/>
      <point x="244" y="-54"/>
      <point x="174" y="-54" type="curve"/>
    </contour>
  </outline>
</glyph>
<glyph name="theta" format="2">
  <advance width="644"/>
  <unicode hex="03B8"/>
  <anchor x="322" y="721" name="topgr"/>
  <outline>
    <contour>
      <point x="39" y="348" type="curve" smooth="yes"/>
      <point x="39" y="115"/>
      <point x="143" y="-20"/>
      <point x="324" y="-20" type="curve" smooth="yes"/>
      <point x="503" y="-20"/>
      <point x="605" y="114"/>
      <point x="605" y="348" type="curve" smooth="yes"/>
      <point x="605" y="581"/>
      <point x="500" y="720"/>
      <point x="324" y="720" type="curve" smooth="yes"/>
      <point x="146" y="720"/>
      <point x="39" y="580"/>
    </contour>
    <contour>
      <point x="324" y="103" type="curve" smooth="yes"/>
      <point x="245" y="103"/>
      <point x="205" y="184"/>
      <point x="205" y="347" type="curve" smooth="yes"/>
      <point x="205" y="517"/>
      <point x="243" y="597"/>
      <point x="324" y="597" type="curve" smooth="yes"/>
      <point x="404" y="597"/>
      <point x="440" y="518"/>
      <point x="440" y="347" type="curve" smooth="yes"/>
      <point x="440" y="179"/>
      <point x="404" y="103"/>
    </contour>
    <contour>
      <point x="191" y="294" type="line"/>
      <point x="454" y="294" type="line"/>
      <point x="454" y="410" type="line"/>
      <point x="191" y="410" type="line"/>
    </contour>
  </outline>
</glyph>
<glyph name="nu" format="2">
  <advance width="595"/>
  <unicode hex="03BD"/>
  <outline>
    <contour>
      <point x="310" y="104" type="line"/>
      <point x="366" y="116"/>
      <point x="391" y="169"/>
      <point x="391" y="267" type="curve" smooth="yes"/>
      <point x="391" y="368"/>
      <point x="364" y="440"/>
      <point x="329" y="500" type="curve"/>
      <point x="489" y="500" type="line"/>
      <point x="525" y="446"/>
      <point x="556" y="359"/>
      <point x="556" y="263" type="curve" smooth="yes"/>
      <point x="556" y="92"/>
      <point x="459" y="-19"/>
      <point x="287" y="-19" type="curve" smooth="yes"/>
      <point x="184" y="-19" type="line"/>
      <point x="5" y="500" type="line"/>
      <point x="181" y="500" type="line"/>
    </contour>
  </outline>
</glyph>
<glyph name="kaisymbol" format="2">
  <advance width="594"/>
  <unicode hex="03D7"/>
  <outline>
    <contour>
      <point x="399" y="1" type="line"/>
      <point x="399" y="-63"/>
      <point x="344" y="-81"/>
      <point x="225" y="-81" type="curve"/>
      <point x="225" y="-203" type="line"/>
      <point x="436" y="-203"/>
      <point x="587" y="-143"/>
      <point x="587" y="0" type="curve"/>
    </contour>
    <contour>
      <point x="229" y="0" type="line"/>
      <point x="229" y="500" type="line"/>
      <point x="64" y="500" type="line"/>
      <point x="64" y="0" type="line"/>
    </contour>
    <contour>
      <point x="119" y="318" type="line"/>
      <point x="120" y="199" type="line"/>
      <point x="306" y="199" type="line" name="iv01"/>
      <point x="399" y="0" type="line" name="ab02"/>
      <point x="587" y="0" type="line"/>
      <point x="446" y="265" type="line"/>
      <point x="571" y="500" type="line" name="av02"/>
      <point x="408" y="500" type="line"/>
      <point x="323" y="318" type="line" name="iv02"/>
    </contour>
  </outline>
</glyph>
<glyph name="Tshecyr" format="2">
  <advance width="752"/>
  <unicode hex="040B"/>
  <outline>
    <contour>
      <point x="21" y="700" type="line"/>
      <point x="21" y="570" type="line"/>
      <point x="162" y="570" type="line"/>
      <point x="162" y="0" type="line"/>
      <point x="328" y="0" type="line"/>
      <point x="328" y="570" type="line"/>
      <point x="562" y="570" type="line"/>
      <point x="562" y="700" type="line"/>
    </contour>
    <contour>
      <point x="693" y="0" type="line"/>
      <point x="693" y="271" type="line" smooth="yes"/>
      <point x="693" y="417"/>
      <point x="607" y="482"/>
      <point x="491" y="482" type="curve" smooth="yes"/>
      <point x="378" y="482"/>
      <point x="320" y="420"/>
      <point x="310" y="327" type="curve"/>
      <point x="328" y="211" type="line"/>
      <point x="328" y="303"/>
      <point x="369" y="353"/>
      <point x="444" y="353" type="curve" smooth="yes"/>
      <point x="493" y="353"/>
      <point x="527" y="332"/>
      <point x="527" y="265" type="curve" smooth="yes"/>
      <point x="527" y="0" type="line"/>
    </contour>
  </outline>
</glyph>
<glyph name="Becyr" format="2">
  <advance width="633"/>
  <unicode hex="0411"/>
  <outline>
    <component base="Softcyr"/>
    <contour>
      <point x="118" y="569" type="line"/>
      <point x="545" y="569" type="line"/>
      <point x="545" y="700" type="line"/>
      <point x="85" y="700" type="line"/>
      <point x="85" y="694" type="line"/>
    </contour>
  </outline>
</glyph>
<glyph name="Icyr" format="2">
  <advance width="752"/>
  <unicode hex="0418"/>
  <anchor x="376" y="719" name="top"/>
  <anchor x="376" y="-20" name="bottom"/>
  <outline>
    <contour>
      <point x="685" y="0" type="line"/>
      <point x="685" y="700" type="line"/>
      <point x="529" y="700" type="line"/>
      <point x="233" y="261" type="line"/>
      <point x="233" y="700" type="line"/>
      <point x="67" y="700" type="line"/>
      <point x="67" y="0" type="line"/>
      <point x="223" y="0" type="line"/>
      <point x="519" y="439" type="line"/>
      <point x="519" y="0" type="line"/>
    </contour>
  </outline>
</glyph>
<glyph name="Elcyr" format="2">
  <advance width="760"/>
  <unicode hex="041B"/>
  <outline>
    <contour>
      <point x="157" y="-20" type="curve" smooth="yes"/>
      <point x="316" y="-20"/>
      <point x="345" y="67"/>
      <point x="345" y="570" type="curve"/>
      <point x="528" y="570" type="line"/>
      <point x="528" y="0" type="line"/>
      <point x="693" y="0" type="line"/>
      <point x="693" y="700" type="line"/>
      <point x="180" y="700" type="line"/>
      <point x="180" y="244"/>
      <point x="178" y="113"/>
      <point x="113" y="113" type="curve" smooth="yes"/>
      <point x="102" y="113"/>
      <point x="93" y="117"/>
      <point x="59" y="140" type="curve"/>
      <point x="31" y="9" type="line"/>
      <point x="72" y="-9"/>
      <point x="100" y="-20"/>
    </contour>
  </outline>
</glyph>
<glyph name="Ucyr" format="2">
  <advance width="612"/>
  <unicode hex="0423"/>
  <anchor x="306" y="719" name="top"/>
  <anchor x="317" y="-20" name="bottom"/>
  <outline>
    <contour>
      <point x="604" y="700" type="line"/>
      <point x="426" y="700" type="line"/>
      <point x="236" y="150" type="line" smooth="yes"/>
      <point x="212.037" y="80.6331"/>
      <point x="167" y="44"/>
      <point x="81" y="44" type="curve"/>
      <point x="81" y="-86" type="line"/>
      <point x="230" y="-86"/>
      <point x="315" y="-54"/>
      <point x="349" y="36" type="curve" smooth="yes"/>
    </contour>
    <contour>
      <point x="366" y="142" type="line"/>
      <point x="184" y="700" type="line"/>
      <point x="8" y="700" type="line"/>
      <point x="213" y="138" type="line"/>
      <point x="266" y="138" type="line"/>
      <point x="277" y="65" type="line"/>
    </contour>
  </outline>
</glyph>
<glyph name="Efcyr" format="2">
  <advance width="836"/>
  <unicode hex="0424"/>
  <outline>
    <contour>
      <point x="335" y="-20" type="line"/>
      <point x="501" y="-20" type="line"/>
      <point x="501" y="60" type="line"/>
      <point x="669" y="60"/>
      <point x="798" y="179"/>
      <point x="798" y="354" type="curve" smooth="yes"/>
      <point x="798" y="527"/>
      <point x="671" y="642"/>
      <point x="501" y="642" type="curve"/>
      <point x="501" y="722" type="line"/>
      <point x="335" y="722" type="line"/>
      <point x="335" y="642" type="line"/>
      <point x="165" y="642"/>
      <point x="38" y="527"/>
      <point x="38" y="354" type="curve" smooth="yes"/>
      <point x="38" y="179"/>
      <point x="167" y="60"/>
      <point x="335" y="60" type="curve"/>
    </contour>
    <contour>
      <point x="501" y="512" type="line"/>
      <point x="576" y="512"/>
      <point x="631" y="455"/>
      <point x="631" y="356" type="curve" smooth="yes"/>
      <point x="631" y="254"/>
      <point x="573" y="190"/>
      <point x="501" y="190" type="curve"/>
    </contour>
    <contour>
      <point x="335" y="190" type="line"/>
      <point x="263" y="190"/>
      <point x="205" y="254"/>
      <point x="205" y="356" type="curve" smooth="yes"/>
      <point x="205" y="455"/>
      <point x="260" y="512"/>
      <point x="335" y="512" type="curve"/>
    </contour>
  </outline>
</glyph>
<glyph name="Hardcyr" format="2">
  <advance width="735"/>
  <unicode hex="042A"/>
  <outline>
    <component base="Softcyr" xOffset="102"/>
    <contour>
      <point x="21" y="700" type="line"/>
      <point x="21" y="569" type="line"/>
      <point x="194" y="569" type="line"/>
      <point x="227" y="694" type="line"/>
      <point x="227" y="700" type="line"/>
    </contour>
  </outline>
</glyph>
<glyph name="decyr" format="2">
  <advance width="780"/>
  <unicode hex="0434"/>
  <anchor x="409" y="-20" name="bottom"/>
  <anchor x="410" y="520" name="top"/>
  <outline>
    <contour>
      <point x="152" y="-140" type="line"/>
      <point x="153" y="-107"/>
      <point x="139" y="0"/>
      <point x="198" y="0" type="curve" smooth="yes"/>
      <point x="578" y="0" type="line" smooth="yes"/>
      <point x="649" y="0"/>
      <point x="630" y="-102"/>
      <point x="630" y="-140" type="curve"/>
      <point x="756" y="-140" type="line"/>
      <point x="756" y="69"/>
      <point x="732" y="121"/>
      <point x="635" y="121" type="curve"/>
      <point x="635" y="500" type="line"/>
      <point x="196" y="500" type="line"/>
      <point x="196" y="331" type="line" smooth="yes"/>
      <point x="196" y="200"/>
      <point x="183" y="152"/>
      <point x="159" y="123" type="curve"/>
      <point x="56" y="123"/>
      <point x="25" y="62"/>
      <point x="25" y="-140" type="curve"/>
    </contour>
    <contour>
      <point x="268" y="122" type="line"/>
      <point x="371" y="154"/>
      <point x="361" y="211"/>
      <point x="361" y="377" type="curve"/>
      <point x="470" y="377" type="line"/>
      <point x="470" y="122" type="line"/>
    </contour>
  </outline>
</glyph>
<glyph name="kacyr" format="2">
  <advance width="588"/>
  <unicode hex="043A"/>
  <anchor x="288" y="520" name="top"/>
  <anchor x="288" y="-20" name="bottom"/>
  <outline>
    <contour>
      <point x="64" y="500" type="line"/>
      <point x="64" y="0" type="line"/>
      <point x="229" y="0" type="line"/>
      <point x="229" y="500" type="line"/>
    </contour>
    <contour>
      <point x="215" y="205" type="line"/>
      <point x="381" y="205" type="line" smooth="yes"/>
      <point x="461" y="205"/>
      <point x="515" y="252"/>
      <point x="526" y="334" type="curve"/>
      <point x="543" y="500" type="line"/>
      <point x="390" y="500" type="line"/>
      <point x="379" y="392.775" type="line"/>
      <point x="373" y="342.197"/>
      <point x="359" y="325"/>
      <point x="303" y="325" type="curve" smooth="yes"/>
      <point x="215" y="325" type="line"/>
    </contour>
    <contour>
      <point x="309" y="235" type="line"/>
      <point x="411" y="0" type="line"/>
      <point x="581" y="0" type="line"/>
      <point x="473" y="247" type="line"/>
    </contour>
  </outline>
</glyph>
<glyph name="ljecyr" format="2">
  <advance width="820"/>
  <unicode hex="0459"/>
  <outline>
    <contour>
      <point x="431" y="321" type="line"/>
      <point x="431" y="199" type="line"/>
      <point x="560" y="199" type="line" smooth="yes"/>
      <point x="595" y="199"/>
      <point x="615" y="184.06"/>
      <point x="615" y="161.075" type="curve" smooth="yes"/>
      <point x="615" y="136.94"/>
      <point x="594" y="122"/>
      <point x="557" y="122" type="curve" smooth="yes"/>
      <point x="500" y="122" type="line"/>
      <point x="418" y="120" type="line"/>
      <point x="394" y="60" type="line"/>
      <point x="508" y="0" type="line"/>
      <point x="597" y="0" type="line" smooth="yes"/>
      <point x="717" y="0"/>
      <point x="780" y="54.7042"/>
      <point x="780" y="162.048" type="curve" smooth="yes"/>
      <point x="780" y="268.36"/>
      <point x="718" y="321"/>
      <point x="596" y="321" type="curve" smooth="yes"/>
    </contour>
    <contour>
      <point x="113" y="500" type="line"/>
      <point x="113" y="180"/>
      <point x="104" y="103"/>
      <point x="54" y="103" type="curve" smooth="yes"/>
      <point x="50" y="103"/>
      <point x="41" y="104"/>
      <point x="30" y="106" type="curve"/>
      <point x="5" y="-9" type="line"/>
      <point x="26" y="-16"/>
      <point x="46" y="-20"/>
      <point x="72" y="-20" type="curve" smooth="yes"/>
      <point x="218" y="-20"/>
      <point x="277" y="56"/>
      <point x="277" y="378" type="curve"/>
      <point x="349" y="378" type="line"/>
      <point x="349" y="0" type="line"/>
      <point x="514" y="0" type="line"/>
      <point x="514" y="500" type="line"/>
    </contour>
  </outline>
</glyph>
<glyph name="quotesinglbase" format="2">
  <advance width="308"/>
  <unicode hex="201A"/>
  <outline>
    <contour>
      <point x="64" y="71" type="curve" smooth="yes"/>
      <point x="64" y="21"/>
      <point x="102" y="-20"/>
      <point x="152" y="-20" type="curve" smooth="yes"/>
      <point x="165" y="-20"/>
      <point x="175" y="-17"/>
      <point x="184" y="-13" type="curve"/>
      <point x="176" y="-51"/>
      <point x="132" y="-114"/>
      <point x="86" y="-142" type="curve"/>
      <point x="97" y="-158" type="line"/>
      <point x="179" y="-119"/>
      <point x="244" y="-28"/>
      <point x="244" y="58" type="curve" smooth="yes"/>
      <point x="244" y="125"/>
      <point x="204" y="160"/>
      <point x="154" y="160" type="curve" smooth="yes"/>
      <point x="102" y="160"/>
      <point x="64" y="121"/>
    </contour>
  </outline>
</glyph>
<glyph name="zero.superior" format="2">
  <advance width="438"/>
  <unicode hex="2070"/>
  <outline>
    <contour>
      <point x="22" y="579" type="curve" smooth="yes"/>
      <point x="22" y="420"/>
      <point x="92" y="336"/>
      <point x="221" y="336" type="curve" smooth="yes"/>
      <point x="349" y="336"/>
      <point x="418" y="418"/>
      <point x="418" y="583" type="curve" smooth="yes"/>
      <point x="418" y="747"/>
      <point x="350" y="831"/>
      <point x="224" y="831" type="curve" smooth="yes"/>
      <point x="94" y="831"/>
      <point x="22" y="741"/>
    </contour>
    <contour>
      <point x="137" y="584" type="curve" smooth="yes"/>
      <point x="137" y="696"/>
      <point x="166" y="741"/>
      <point x="219" y="741" type="curve" smooth="yes"/>
      <point x="273" y="741"/>
      <point x="303" y="695"/>
      <point x="303" y="585" type="curve" smooth="yes"/>
      <point x="303" y="470"/>
      <point x="270" y="426"/>
      <point x="219" y="426" type="curve" smooth="yes"/>
      <point x="166" y="426"/>
      <point x="137" y="472"/>
    </contour>
  </outline>
</glyph>
<glyph name="manat" format="2">
  <advance width="846"/>
  <unicode hex="20BC"/>
  <outline>
    <contour>
      <point x="366" y="110" type="line"/>
      <point x="487" y="163" type="line"/>
      <point x="487" y="756" type="line"/>
      <point x="366" y="703" type="line"/>
    </contour>
    <contour>
      <point x="425" y="602" type="curve" smooth="yes"/>
      <point x="195" y="602"/>
      <point x="38" y="444"/>
      <point x="38" y="214" type="curve" smooth="yes"/>
      <point x="38" y="143"/>
      <point x="54" y="69"/>
      <point x="85" y="0" type="curve"/>
      <point x="255" y="0" type="line"/>
      <point x="221" y="58"/>
      <point x="203" y="130"/>
      <point x="203" y="198" type="curve" smooth="yes"/>
      <point x="203" y="362"/>
      <point x="291" y="472"/>
      <point x="423" y="472" type="curve" smooth="yes"/>
      <point x="557" y="472"/>
      <point x="643" y="364"/>
      <point x="643" y="201" type="curve" smooth="yes"/>
      <point x="643" y="132"/>
      <point x="625" y="59"/>
      <point x="590" y="0" type="curve"/>
      <point x="756" y="0" type="line"/>
      <point x="790" y="75"/>
      <point x="808" y="154"/>
      <point x="808" y="230" type="curve" smooth="yes"/>
      <point x="808" y="450"/>
      <point x="651" y="602"/>
    </contour>
  </outline>
</glyph>
<glyph name="C.ss09" format="2">
  <advance width="773"/>
  <anchor x="407" y="-19" name="bottom"/>
  <anchor x="387" y="719" name="top"/>
  <outline>
    <contour>
      <point x="38" y="357" type="curve" smooth="yes"/>
      <point x="38" y="146"/>
      <point x="190" y="-20"/>
      <point x="402" y="-20" type="curve" smooth="yes"/>
      <point x="585" y="-20"/>
      <point x="703" y="103"/>
      <point x="735" y="261" type="curve"/>
      <point x="569" y="261" type="line"/>
      <point x="557" y="164"/>
      <point x="485" y="111"/>
      <point x="395" y="111" type="curve" smooth="yes"/>
      <point x="276" y="111"/>
      <point x="205" y="203"/>
      <point x="205" y="353" type="curve" smooth="yes"/>
      <point x="205" y="500"/>
      <point x="273" y="589"/>
      <point x="399" y="589" type="curve" smooth="yes"/>
      <point x="483" y="589"/>
      <point x="533" y="550"/>
      <point x="559" y="485" type="curve"/>
      <point x="725" y="485" type="line"/>
      <point x="682" y="623"/>
      <point x="568" y="720"/>
      <point x="399" y="720" type="curve" smooth="yes"/>
      <point x="186" y="720"/>
      <point x="38" y="565"/>
    </contour>
  </outline>
</glyph>
<glyph name="G.ss15" format="2">
  <advance width="767"/>
  <anchor x="393" y="-19" name="bottom"/>
  <anchor x="393" y="719" name="top"/>
  <outline>
    <contour>
      <point x="385" y="720" type="curve" smooth="yes"/>
      <point x="502" y="720"/>
      <point x="599" y="677"/>
      <point x="676" y="587" type="curve"/>
      <point x="664" y="473" type="line"/>
      <point x="582" y="555"/>
      <point x="485" y="590"/>
      <point x="397" y="590" type="curve" smooth="yes"/>
      <point x="263" y="590"/>
      <point x="203" y="508"/>
      <point x="203" y="348" type="curve" smooth="yes"/>
      <point x="203" y="195"/>
      <point x="276" y="111"/>
      <point x="407" y="111" type="curve" smooth="yes"/>
      <point x="521" y="111"/>
      <point x="572" y="175"/>
      <point x="572" y="309" type="curve"/>
      <point x="572" y="264" type="line"/>
      <point x="382" y="264" type="line"/>
      <point x="382" y="394" type="line"/>
      <point x="729" y="394" type="line"/>
      <point x="729" y="321" type="line" smooth="yes"/>
      <point x="729" y="119"/>
      <point x="603" y="-19"/>
      <point x="393" y="-19" type="curve" smooth="yes"/>
      <point x="183" y="-19"/>
      <point x="38" y="118"/>
      <point x="38" y="348" type="curve" smooth="yes"/>
      <point x="38" y="578"/>
      <point x="170" y="720"/>
    </contour>
  </outline>
</glyph>
<glyph name="J.ss12" format="2">
  <advance width="500"/>
  <anchor x="359" y="719" name="top"/>
  <anchor x="210" y="-20" name="bottom"/>
  <outline>
    <contour>
      <point x="209.772" y="-20" type="curve" smooth="yes"/>
      <point x="362.589" y="-20"/>
      <point x="436.5" y="62"/>
      <point x="436.5" y="232" type="curve" smooth="yes"/>
      <point x="436.5" y="700" type="line"/>
      <point x="271.5" y="700" type="line"/>
      <point x="271.5" y="239" type="line" smooth="yes"/>
      <point x="271.5" y="143"/>
      <point x="250.456" y="110"/>
      <point x="186.321" y="110" type="curve" smooth="yes"/>
      <point x="132.208" y="110"/>
      <point x="89.1176" y="119"/>
      <point x="33" y="140" type="curve"/>
      <point x="19" y="23" type="line"/>
      <point x="65.9438" y="-3"/>
      <point x="120.878" y="-20"/>
    </contour>
  </outline>
</glyph>
<glyph name="Schwa.ss12" format="2">
  <advance width="779"/>
  <anchor x="390" y="719" name="top"/>
  <anchor x="390" y="-20" name="bottom"/>
  <outline>
    <contour>
      <point x="370" y="589" type="curve" smooth="yes"/>
      <point x="504" y="589"/>
      <point x="574" y="509"/>
      <point x="574" y="354" type="curve" smooth="yes"/>
      <point x="574" y="198"/>
      <point x="509" y="111"/>
      <point x="392" y="111" type="curve" smooth="yes"/>
      <point x="294" y="111"/>
      <point x="221" y="168"/>
      <point x="210" y="288" type="curve"/>
      <point x="594" y="288" type="line"/>
      <point x="595" y="412" type="line"/>
      <point x="42" y="412" type="line"/>
      <point x="40" y="397"/>
      <point x="38" y="374"/>
      <point x="38" y="360" type="curve" smooth="yes"/>
      <point x="38" y="131"/>
      <point x="178" y="-20"/>
      <point x="390" y="-20" type="curve" smooth="yes"/>
      <point x="593" y="-20"/>
      <point x="741" y="111"/>
      <point x="741" y="350" type="curve" smooth="yes"/>
      <point x="741" y="573"/>
      <point x="611" y="720"/>
      <point x="386" y="720" type="curve" smooth="yes"/>
      <point x="263" y="720"/>
      <point x="180" y="677"/>
      <point x="98" y="587" type="curve"/>
      <point x="110" y="473" type="line"/>
      <point x="197" y="554"/>
      <point x="270" y="589"/>
    </contour>
  </outline>
</glyph>
<glyph name="Zecyr.ss09" format="2">
  <advance width="598"/>
  <anchor x="299" y="-20" name="bottom"/>
  <anchor x="299" y="719" name="top"/>
  <outline>
    <contour>
      <point x="299.748" y="-20" type="curve" smooth="yes"/>
      <point x="456.603" y="-20"/>
      <point x="567.5" y="66"/>
      <point x="567.5" y="179" type="curve" smooth="yes"/>
      <point x="567.5" y="293"/>
      <point x="505.661" y="355"/>
      <point x="376" y="371" type="curve"/>
      <point x="488.289" y="398"/>
      <point x="534" y="448"/>
      <point x="534" y="542" type="curve" smooth="yes"/>
      <point x="534" y="650"/>
      <point x="445.178" y="720"/>
      <point x="305.459" y="720" type="curve" smooth="yes"/>
      <point x="150.77" y="720"/>
      <point x="61.9479" y="639"/>
      <point x="36" y="502" type="curve"/>
      <point x="202" y="502" type="line"/>
      <point x="216.084" y="565"/>
      <point x="250.289" y="589"/>
      <point x="297.572" y="589" type="curve" smooth="yes"/>
      <point x="345.861" y="589"/>
      <point x="369" y="562"/>
      <point x="369" y="518" type="curve" smooth="yes"/>
      <point x="369" y="456"/>
      <point x="335.692" y="429"/>
      <point x="261" y="429" type="curve"/>
      <point x="261" y="302" type="line"/>
      <point x="359.348" y="302"/>
      <point x="402.5" y="273"/>
      <point x="402.5" y="207" type="curve" smooth="yes"/>
      <point x="402.5" y="149"/>
      <point x="373.43" y="110"/>
      <point x="300.255" y="110" type="curve" smooth="yes"/>
      <point x="242.115" y="110"/>
      <point x="208.034" y="134"/>
      <point x="194" y="197" type="curve"/>
      <point x="28" y="197" type="line"/>
      <point x="53.9759" y="54"/>
      <point x="142.894" y="-20"/>
    </contour>
  </outline>
</glyph>
<glyph name="Zecyr.ss10" format="2">
  <advance width="598"/>
  <anchor x="299" y="-20" name="bottom"/>
  <anchor x="299" y="719" name="top"/>
  <outline>
    <contour>
      <point x="299.338" y="111" type="curve" smooth="yes"/>
      <point x="220.213" y="111"/>
      <point x="157.114" y="155"/>
      <point x="85" y="275" type="curve"/>
      <point x="40" y="116" type="line"/>
      <point x="104.938" y="33"/>
      <point x="195.852" y="-20"/>
      <point x="315.739" y="-20" type="curve" smooth="yes"/>
      <point x="467.595" y="-20"/>
      <point x="567.5" y="65"/>
      <point x="567.5" y="193" type="curve" smooth="yes"/>
      <point x="567.5" y="293"/>
      <point x="505.661" y="355"/>
      <point x="376" y="371" type="curve"/>
      <point x="488.289" y="398"/>
      <point x="534" y="448"/>
      <point x="534" y="534" type="curve" smooth="yes"/>
      <point x="534" y="650"/>
      <point x="444.182" y="720"/>
      <point x="300.473" y="720" type="curve" smooth="yes"/>
      <point x="195.685" y="720"/>
      <point x="104.869" y="666"/>
      <point x="40" y="583" type="curve"/>
      <point x="85" y="424" type="line"/>
      <point x="157.254" y="544"/>
      <point x="220.477" y="589"/>
      <point x="295.742" y="589" type="curve" smooth="yes"/>
      <point x="350.936" y="589"/>
      <point x="369" y="565"/>
      <point x="369" y="519" type="curve" smooth="yes"/>
      <point x="369" y="456"/>
      <point x="335.692" y="429"/>
      <point x="261" y="429" type="curve"/>
      <point x="261" y="302" type="line"/>
      <point x="359.348" y="302"/>
      <point x="402.5" y="273"/>
      <point x="402.5" y="205" type="curve" smooth="yes"/>
      <point x="402.5" y="149"/>
      <point x="372.453" y="111"/>
    </contour>
  </outline>
</glyph>
<glyph name="a.ss02" format="2">
  <advance width="580"/>
  <anchor x="290" y="520" name="top"/>
  <anchor x="280" y="-20" name="bottom"/>
  <anchor x="514" y="-3" name="ogonek"/>
  <outline>
    <contour>
      <point x="215" y="148" type="curve" smooth="yes"/>
      <point x="215" y="120"/>
      <point x="236" y="104"/>
      <point x="271" y="104" type="curve" smooth="yes"/>
      <point x="322" y="104"/>
      <point x="364" y="137"/>
      <point x="358" y="187" type="curve"/>
      <point x="371" y="110" type="line"/>
      <point x="354" y="28"/>
      <point x="298" y="-20"/>
      <point x="217" y="-20" type="curve" smooth="yes"/>
      <point x="120" y="-20"/>
      <point x="49" y="49"/>
      <point x="49" y="146" type="curve" smooth="yes"/>
      <point x="49" y="243"/>
      <point x="120" y="312"/>
      <point x="220" y="312" type="curve" smooth="yes"/>
      <point x="299" y="312"/>
      <point x="355" y="268"/>
      <point x="372" y="193" type="curve"/>
      <point x="367" y="124" type="line"/>
      <point x="367" y="164"/>
      <point x="327" y="192"/>
      <point x="276" y="192" type="curve" smooth="yes"/>
      <point x="238" y="192"/>
      <point x="215" y="177"/>
    </contour>
    <contour>
      <point x="270" y="397" type="curve" smooth="yes"/>
      <point x="223" y="397"/>
      <point x="177" y="377"/>
      <point x="150" y="342" type="curve"/>
      <point x="65" y="427" type="line"/>
      <point x="115" y="488"/>
      <point x="195" y="520"/>
      <point x="298" y="520" type="curve" smooth="yes"/>
      <point x="456" y="520"/>
      <point x="521" y="444"/>
      <point x="521" y="352" type="curve" smooth="yes"/>
      <point x="521" y="0" type="line"/>
      <point x="356" y="0" type="line"/>
      <point x="356" y="325" type="line" smooth="yes"/>
      <point x="356" y="375"/>
      <point x="319" y="397"/>
    </contour>
  </outline>
</glyph>
<glyph name="a.ss10" format="2">
  <advance width="568"/>
  <anchor x="284" y="520" name="top"/>
  <anchor x="284" y="-20" name="bottom"/>
  <anchor x="496" y="-3" name="ogonek"/>
  <outline>
    <contour>
      <point x="262.717" y="396" type="curve" smooth="yes"/>
      <point x="314.826" y="396"/>
      <point x="337" y="378.694"/>
      <point x="337" y="347.135" type="curve" smooth="yes"/>
      <point x="337" y="307.432"/>
      <point x="304" y="283"/>
      <point x="226" y="283" type="curve" smooth="yes"/>
      <point x="109" y="283"/>
      <point x="35" y="229.354"/>
      <point x="35" y="135.97" type="curve" smooth="yes"/>
      <point x="35" y="43.5803"/>
      <point x="108" y="-20"/>
      <point x="198" y="-20" type="curve" smooth="yes"/>
      <point x="290" y="-20"/>
      <point x="340" y="47"/>
      <point x="356" y="127" type="curve"/>
      <point x="338" y="208" type="line"/>
      <point x="338" y="159.094"/>
      <point x="298" y="100"/>
      <point x="244" y="100" type="curve" smooth="yes"/>
      <point x="219" y="100"/>
      <point x="200" y="112.338"/>
      <point x="200" y="134.958" type="curve" smooth="yes"/>
      <point x="200" y="157.577"/>
      <point x="219" y="173"/>
      <point x="254" y="173" type="curve" smooth="yes"/>
      <point x="291" y="173"/>
      <point x="324" y="190"/>
      <point x="338" y="214" type="curve"/>
      <point x="338" y="77" type="line"/>
      <point x="503" y="-10" type="line"/>
      <point x="503" y="352" type="line" smooth="yes"/>
      <point x="503" y="444"/>
      <point x="436.826" y="520"/>
      <point x="285.572" y="520" type="curve" smooth="yes"/>
      <point x="180.534" y="520"/>
      <point x="86" y="483"/>
      <point x="43" y="426" type="curve"/>
      <point x="82" y="297" type="line"/>
      <point x="133" y="366"/>
      <point x="193.978" y="396"/>
    </contour>
  </outline>
</glyph>
<glyph name="a.ss12" format="2">
  <advance width="544"/>
  <anchor x="272" y="520" name="top"/>
  <anchor x="272" y="-20" name="bottom"/>
  <anchor x="480" y="-3" name="ogonek"/>
  <outline>
    <contour>
      <point x="245.59" y="397" type="curve" smooth="yes"/>
      <point x="181.406" y="397"/>
      <point x="118.241" y="374"/>
      <point x="51" y="322" type="curve"/>
      <point x="42" y="425" type="line"/>
      <point x="91.5568" y="483"/>
      <point x="168.42" y="520"/>
      <point x="265.511" y="520" type="curve" smooth="yes"/>
      <point x="406.091" y="520"/>
      <point x="487" y="443"/>
      <point x="487" y="350" type="curve" smooth="yes"/>
      <point x="487" y="0" type="line"/>
      <point x="322" y="0" type="line"/>
      <point x="322" y="222" type="line"/>
      <point x="315" y="204"/>
      <point x="294.16" y="190"/>
      <point x="258.731" y="190" type="curve" smooth="yes"/>
      <point x="219.134" y="190"/>
      <point x="191" y="172"/>
      <point x="191" y="141" type="curve" smooth="yes"/>
      <point x="191" y="113"/>
      <point x="212.833" y="96"/>
      <point x="238.825" y="96" type="curve" smooth="yes"/>
      <point x="288.73" y="96"/>
      <point x="322" y="135.6"/>
      <point x="322" y="195" type="curve"/>
      <point x="336" y="124" type="line"/>
      <point x="313" y="25"/>
      <point x="270.258" y="-20"/>
      <point x="193.933" y="-20" type="curve" smooth="yes"/>
      <point x="92.5731" y="-20"/>
      <point x="25" y="45.0097"/>
      <point x="25" y="142.524" type="curve" smooth="yes"/>
      <point x="25" y="237.832"/>
      <point x="96.1986" y="290"/>
      <point x="215.202" y="290" type="curve" smooth="yes"/>
      <point x="289.452" y="290"/>
      <point x="322" y="309.815"/>
      <point x="322" y="349.444" type="curve" smooth="yes"/>
      <point x="322" y="380.157"/>
      <point x="301.624" y="397"/>
    </contour>
  </outline>
</glyph>
<glyph name="acutecomb.loclPLK" format="2">
  <advance width="287"/>
  <anchor x="142" y="700" name="top"/>
  <anchor x="126" y="500" name="_top"/>
  <outline>
    <contour>
      <point x="72" y="550" type="line"/>
      <point x="170" y="550" type="line"/>
      <point x="237" y="701" type="line"/>
      <point x="103" y="701" type="line"/>
    </contour>
  </outline>
</glyph>
<glyph name="ae.ss02" format="2">
  <advance width="904"/>
  <anchor x="486" y="520" name="top"/>
  <anchor x="486" y="-20" name="bottom"/>
  <outline>
    <contour>
      <point x="265.6" y="397" type="curve" smooth="yes"/>
      <point x="219.54" y="397"/>
      <point x="174.46" y="377"/>
      <point x="148" y="342" type="curve"/>
      <point x="64.7" y="427" type="line"/>
      <point x="113.7" y="488"/>
      <point x="192.1" y="520"/>
      <point x="293.04" y="520" type="curve" smooth="yes"/>
      <point x="367.96" y="520"/>
      <point x="422.24" y="502.21"/>
      <point x="458.32" y="473.42" type="curve"/>
      <point x="501.67" y="503.72"/>
      <point x="556.35" y="520"/>
      <point x="617.91" y="520" type="curve" smooth="yes"/>
      <point x="790.05" y="520"/>
      <point x="887.29" y="404.02"/>
      <point x="876.15" y="212" type="curve"/>
      <point x="516.15" y="212" type="line"/>
      <point x="520" y="138"/>
      <point x="560.3" y="103"/>
      <point x="635.19" y="103" type="curve" smooth="yes"/>
      <point x="691.83" y="103"/>
      <point x="736" y="123"/>
      <point x="761.91" y="158" type="curve"/>
      <point x="843.51" y="73" type="line"/>
      <point x="795.51" y="12"/>
      <point x="718.71" y="-20"/>
      <point x="630.39" y="-20" type="curve" smooth="yes"/>
      <point x="530.473" y="-20"/>
      <point x="448.64" y="20.2955"/>
      <point x="400.807" y="91.1335" type="curve"/>
      <point x="363.762" y="15.4509"/>
      <point x="283.979" y="-20"/>
      <point x="215.833" y="-20" type="curve" smooth="yes"/>
      <point x="120.762" y="-20"/>
      <point x="49.02" y="49"/>
      <point x="49.02" y="146" type="curve" smooth="yes"/>
      <point x="49.02" y="243"/>
      <point x="118.6" y="312"/>
      <point x="216.6" y="312" type="curve" smooth="yes"/>
      <point x="277.82" y="312"/>
      <point x="326.82" y="284.48"/>
      <point x="352.88" y="235.88" type="curve"/>
      <point x="352.88" y="325" type="line" smooth="yes"/>
      <point x="352.88" y="375"/>
      <point x="313.62" y="397"/>
    </contour>
    <contour>
      <point x="714.87" y="332" type="line"/>
      <point x="709.79" y="373.87"/>
      <point x="666.87" y="397"/>
      <point x="616.66" y="397" type="curve" smooth="yes"/>
      <point x="560.3" y="397"/>
      <point x="523.83" y="367.89"/>
      <point x="518.07" y="332" type="curve"/>
    </contour>
    <contour>
      <point x="211.7" y="148" type="curve" smooth="yes"/>
      <point x="211.7" y="120"/>
      <point x="232.28" y="104"/>
      <point x="266.58" y="104" type="curve" smooth="yes"/>
      <point x="305.95" y="104"/>
      <point x="341.72" y="124.49"/>
      <point x="352.24" y="157.63" type="curve"/>
      <point x="336.39" y="178.82"/>
      <point x="305.76" y="192"/>
      <point x="271.48" y="192" type="curve" smooth="yes"/>
      <point x="234.24" y="192"/>
      <point x="211.7" y="177"/>
    </contour>
  </outline>
</glyph>
<glyph name="ae.ss13" format="2">
  <advance width="887"/>
  <outline>
    <contour>
      <point x="288" y="520" type="curve" smooth="yes"/>
      <point x="360.21" y="520"/>
      <point x="414.8" y="501.15"/>
      <point x="451.42" y="470.86" type="curve"/>
      <point x="493.91" y="501.77"/>
      <point x="548.14" y="520"/>
      <point x="611.69" y="520" type="curve" smooth="yes"/>
      <point x="774.14" y="520"/>
      <point x="862.49" y="406"/>
      <point x="860.59" y="228" type="curve"/>
      <point x="507.24" y="228" type="line"/>
      <point x="507.24" y="137.29"/>
      <point x="542.21" y="100"/>
      <point x="610.26" y="100" type="curve" smooth="yes"/>
      <point x="663.19" y="100"/>
      <point x="695.32" y="124"/>
      <point x="700.04" y="167" type="curve"/>
      <point x="853.94" y="167" type="line"/>
      <point x="834.94" y="51"/>
      <point x="743.74" y="-20"/>
      <point x="610.74" y="-20" type="curve" smooth="yes"/>
      <point x="520.21" y="-20"/>
      <point x="447.71" y="18.3"/>
      <point x="401.92" y="79.91" type="curve"/>
      <point x="349.458" y="0"/>
      <point x="267.73" y="-20"/>
      <point x="211.263" y="-20" type="curve" smooth="yes"/>
      <point x="106.38" y="-20"/>
      <point x="35.5" y="49"/>
      <point x="35.5" y="146" type="curve" smooth="yes"/>
      <point x="35.5" y="243"/>
      <point x="106.39" y="312"/>
      <point x="206.23" y="312" type="curve" smooth="yes"/>
      <point x="268.31" y="312"/>
      <point x="316.16" y="284.74"/>
      <point x="342" y="236.57" type="curve"/>
      <point x="342" y="333.66" type="line" smooth="yes"/>
      <point x="342" y="382.91"/>
      <point x="320" y="400"/>
      <point x="284" y="400" type="curve" smooth="yes"/>
      <point x="244" y="400"/>
      <point x="215" y="377"/>
      <point x="211" y="341" type="curve"/>
      <point x="49" y="341" type="line"/>
      <point x="63" y="460"/>
      <point x="160" y="520"/>
    </contour>
    <contour>
      <point x="507" y="322" type="line"/>
      <point x="711.44" y="322" type="line"/>
      <point x="711.44" y="371"/>
      <point x="668.69" y="400"/>
      <point x="611.69" y="400" type="curve" smooth="yes"/>
      <point x="558.83" y="400"/>
      <point x="513.34" y="375.06"/>
      <point x="507" y="332.36" type="curve"/>
    </contour>
    <contour>
      <point x="200.5" y="148" type="curve" smooth="yes"/>
      <point x="200.5" y="120"/>
      <point x="221.67" y="104"/>
      <point x="262" y="104" type="curve" smooth="yes"/>
      <point x="301.833" y="104"/>
      <point x="336.707" y="127.043"/>
      <point x="342" y="156.86" type="curve"/>
      <point x="342" y="157.66" type="line"/>
      <point x="326.67" y="178.84"/>
      <point x="296.77" y="192"/>
      <point x="261.7" y="192" type="curve" smooth="yes"/>
      <point x="223.57" y="192"/>
      <point x="200.5" y="177"/>
    </contour>
  </outline>
</glyph>
<glyph name="at.case" format="2">
  <advance width="885"/>
  <outline>
    <contour>
      <point x="44" y="304" type="curve" smooth="yes"/>
      <point x="44" y="54"/>
      <point x="199" y="-99"/>
      <point x="423" y="-99" type="curve" smooth="yes"/>
      <point x="463" y="-99"/>
      <point x="499" y="-94"/>
      <point x="534" y="-87" type="curve"/>
      <point x="534" y="-37" type="line"/>
      <point x="502" y="-43"/>
      <point x="463" y="-49"/>
      <point x="424" y="-49" type="curve" smooth="yes"/>
      <point x="245" y="-49"/>
      <point x="104" y="77"/>
      <point x="104" y="307" type="curve" smooth="yes"/>
      <point x="104" y="551"/>
      <point x="264" y="671"/>
      <point x="447" y="671" type="curve" smooth="yes"/>
      <point x="631" y="671"/>
      <point x="781" y="550"/>
      <point x="781" y="339" type="curve" smooth="yes"/>
      <point x="781" y="205"/>
      <point x="727.63" y="143"/>
      <point x="669.812" y="143" type="curve" smooth="yes"/>
      <point x="631.564" y="143"/>
      <point x="620" y="171"/>
      <point x="620" y="211" type="curve" smooth="yes"/>
      <point x="620" y="224" type="line"/>
      <point x="639" y="482" type="line"/>
      <point x="593" y="507"/>
      <point x="545" y="520"/>
      <point x="486" y="520" type="curve" smooth="yes"/>
      <point x="315" y="520"/>
      <point x="234" y="409"/>
      <point x="234" y="280" type="curve" smooth="yes"/>
      <point x="234" y="150"/>
      <point x="319.306" y="81"/>
      <point x="421.056" y="81" type="curve" smooth="yes"/>
      <point x="502.25" y="81"/>
      <point x="530" y="125"/>
      <point x="551" y="188" type="curve"/>
      <point x="546.457" y="119"/>
      <point x="596" y="83"/>
      <point x="666" y="83" type="curve" smooth="yes"/>
      <point x="791" y="83"/>
      <point x="841" y="196"/>
      <point x="841" y="342" type="curve" smooth="yes"/>
      <point x="841" y="567"/>
      <point x="680" y="721"/>
      <point x="448" y="721" type="curve" smooth="yes"/>
      <point x="216" y="721"/>
      <point x="44" y="567"/>
    </contour>
    <contour>
      <point x="334" y="267" type="curve" smooth="yes"/>
      <point x="334" y="376"/>
      <point x="389" y="448"/>
      <point x="466" y="448" type="curve" smooth="yes"/>
      <point x="493" y="448"/>
      <point x="523" y="439"/>
      <point x="544" y="422" type="curve"/>
      <point x="541" y="392"/>
      <point x="534.948" y="350.006"/>
      <point x="532" y="322" type="curve" smooth="yes"/>
      <point x="518.948" y="198.005"/>
      <point x="484" y="151"/>
      <point x="420" y="151" type="curve" smooth="yes"/>
      <point x="357" y="151"/>
      <point x="334" y="197"/>
    </contour>
  </outline>
</glyph>
<glyph name="bracketright.case" format="2">
  <advance width="418"/>
  <outline>
    <contour>
      <point x="35" y="838" type="line"/>
      <point x="35" y="738" type="line"/>
      <point x="199" y="738" type="line"/>
      <point x="199" y="-57" type="line"/>
      <point x="35" y="-57" type="line"/>
      <point x="35" y="-157" type="line"/>
      <point x="351" y="-157" type="line"/>
      <point x="351" y="838" type="line"/>
    </contour>
  </outline>
</glyph>
<glyph name="c.ss12" format="2">
  <advance width="570"/>
  <anchor x="310" y="520" name="top"/>
  <anchor x="310" y="-20" name="bottom"/>
  <outline>
    <contour>
      <point x="530" y="88" type="curve"/>
      <point x="521" y="190" type="line"/>
      <point x="468" y="131"/>
      <point x="406" y="104"/>
      <point x="345" y="104" type="curve" smooth="yes"/>
      <point x="280" y="104"/>
      <point x="204" y="158"/>
      <point x="204" y="254" type="curve" smooth="yes"/>
      <point x="204" y="353"/>
      <point x="279" y="397"/>
      <point x="344" y="397" type="curve" smooth="yes"/>
      <point x="403" y="397"/>
      <point x="455" y="375"/>
      <point x="522" y="322" type="curve"/>
      <point x="531" y="425" type="line"/>
      <point x="480" y="486"/>
      <point x="402" y="520"/>
      <point x="315" y="520" type="curve" smooth="yes"/>
      <point x="135" y="520"/>
      <point x="39" y="401"/>
      <point x="39" y="255" type="curve" smooth="yes"/>
      <point x="39" y="100"/>
      <point x="135" y="-20"/>
      <point x="314" y="-20" type="curve" smooth="yes"/>
      <point x="411" y="-20"/>
      <point x="481" y="29"/>
    </contour>
  </outline>
</glyph>
<glyph name="d.ss11" format="2">
  <advance width="635"/>
  <anchor x="305" y="-20" name="bottom"/>
  <anchor x="318" y="750" name="top"/>
  <anchor x="613" y="700" name="topright"/>
  <outline>
    <contour>
      <point x="417" y="89" type="line"/>
      <point x="581" y="-10" type="line"/>
      <point x="581" y="700" type="line"/>
      <point x="417" y="700" type="line"/>
    </contour>
    <contour>
      <point x="449" y="255" type="curve" smooth="yes"/>
      <point x="449" y="416"/>
      <point x="383" y="520"/>
      <point x="255.574" y="520" type="curve" smooth="yes"/>
      <point x="130" y="520"/>
      <point x="49" y="419"/>
      <point x="49" y="255" type="curve" smooth="yes"/>
      <point x="49" y="88"/>
      <point x="133" y="-20"/>
      <point x="256.804" y="-20" type="curve" smooth="yes"/>
      <point x="384" y="-20"/>
      <point x="449" y="94"/>
    </contour>
    <contour>
      <point x="215" y="253" type="curve" smooth="yes"/>
      <point x="215" y="345"/>
      <point x="246" y="395"/>
      <point x="306" y="395" type="curve" smooth="yes"/>
      <point x="370" y="395"/>
      <point x="417" y="339"/>
      <point x="417" y="254" type="curve" smooth="yes"/>
      <point x="417" y="169"/>
      <point x="367" y="103"/>
      <point x="305" y="103" type="curve" smooth="yes"/>
      <point x="247" y="103"/>
      <point x="215" y="158"/>
    </contour>
  </outline>
</glyph>
<glyph name="e.ss12" format="2">
  <advance width="585"/>
  <anchor x="298" y="520" name="top"/>
  <anchor x="298" y="-20" name="bottom"/>
  <anchor x="407" y="-3" name="ogonek"/>
  <outline>
    <contour>
      <point x="198" y="330" type="curve"/>
      <point x="390" y="330" type="line"/>
      <point x="390" y="357.222"/>
      <point x="367" y="400"/>
      <point x="296" y="400" type="curve" smooth="yes"/>
      <point x="224" y="400"/>
      <point x="198" y="360"/>
    </contour>
    <contour>
      <point x="345" y="104" type="curve" smooth="yes"/>
      <point x="406" y="104"/>
      <point x="468" y="131"/>
      <point x="521" y="190" type="curve"/>
      <point x="530" y="88" type="line"/>
      <point x="481" y="29"/>
      <point x="410" y="-20"/>
      <point x="313" y="-20" type="curve" smooth="yes"/>
      <point x="144" y="-20"/>
      <point x="28" y="92"/>
      <point x="28" y="255" type="curve" smooth="yes"/>
      <point x="28" y="401"/>
      <point x="131" y="520"/>
      <point x="298" y="520" type="curve" smooth="yes"/>
      <point x="467" y="520"/>
      <point x="559" y="395"/>
      <point x="559" y="230" type="curve"/>
      <point x="195" y="230" type="line"/>
      <point x="195" y="151"/>
      <point x="252" y="104"/>
    </contour>
  </outline>
</glyph>
<glyph name="efcyr.ss11" format="2">
  <advance width="844"/>
  <outline>
    <contour>
      <point x="504" y="700" type="line"/>
      <point x="339" y="700" type="line"/>
      <point x="339" y="-200" type="line"/>
      <point x="504" y="-200" type="line"/>
    </contour>
    <contour>
      <point x="318" y="104" type="curve" smooth="yes"/>
      <point x="239" y="104"/>
      <point x="204" y="155"/>
      <point x="204" y="254" type="curve" smooth="yes"/>
      <point x="204" y="349"/>
      <point x="243" y="396"/>
      <point x="317" y="396" type="curve" smooth="yes"/>
      <point x="364" y="396"/>
      <point x="415" y="377"/>
      <point x="442" y="342" type="curve"/>
      <point x="527" y="427" type="line"/>
      <point x="477" y="488"/>
      <point x="402" y="520"/>
      <point x="303" y="520" type="curve" smooth="yes"/>
      <point x="150" y="520"/>
      <point x="39" y="429"/>
      <point x="39" y="255" type="curve" smooth="yes"/>
      <point x="39" y="89"/>
      <point x="140" y="-20"/>
      <point x="301" y="-20" type="curve" smooth="yes"/>
      <point x="403" y="-20"/>
      <point x="481" y="12"/>
      <point x="531" y="73" type="curve"/>
      <point x="446" y="158" type="line"/>
      <point x="419" y="123"/>
      <point x="369" y="104"/>
    </contour>
    <contour>
      <point x="526" y="104" type="curve" smooth="yes"/>
      <point x="475" y="104"/>
      <point x="425" y="123"/>
      <point x="398" y="158" type="curve"/>
      <point x="313" y="73" type="line"/>
      <point x="363" y="12"/>
      <point x="441" y="-20"/>
      <point x="543" y="-20" type="curve" smooth="yes"/>
      <point x="704" y="-20"/>
      <point x="805" y="89"/>
      <point x="805" y="255" type="curve" smooth="yes"/>
      <point x="805" y="429"/>
      <point x="694" y="520"/>
      <point x="541" y="520" type="curve" smooth="yes"/>
      <point x="442" y="520"/>
      <point x="367" y="488"/>
      <point x="317" y="427" type="curve"/>
      <point x="402" y="342" type="line"/>
      <point x="429" y="377"/>
      <point x="480" y="396"/>
      <point x="527" y="396" type="curve" smooth="yes"/>
      <point x="601" y="396"/>
      <point x="640" y="349"/>
      <point x="640" y="254" type="curve" smooth="yes"/>
      <point x="640" y="155"/>
      <point x="605" y="104"/>
    </contour>
  </outline>
</glyph>
<glyph name="epsilon.ss09" format="2">
  <advance width="540"/>
  <anchor x="267" y="519" name="topgr"/>
  <outline>
    <contour>
      <point x="48" y="390" type="curve" smooth="yes"/>
      <point x="48" y="319"/>
      <point x="106" y="273"/>
      <point x="219" y="261" type="curve"/>
      <point x="96" y="263"/>
      <point x="29" y="225"/>
      <point x="29" y="136" type="curve" smooth="yes"/>
      <point x="29" y="24"/>
      <point x="135" y="-20"/>
      <point x="253" y="-20" type="curve" smooth="yes"/>
      <point x="402" y="-20"/>
      <point x="489" y="50"/>
      <point x="498" y="167" type="curve"/>
      <point x="339" y="167" type="line"/>
      <point x="334" y="124"/>
      <point x="313" y="100"/>
      <point x="265" y="100" type="curve" smooth="yes"/>
      <point x="222" y="100"/>
      <point x="195" y="118.191"/>
      <point x="195" y="146.489" type="curve" smooth="yes"/>
      <point x="195" y="181.862"/>
      <point x="235" y="195"/>
      <point x="338" y="195" type="curve"/>
      <point x="338" y="305" type="line"/>
      <point x="248" y="305"/>
      <point x="214" y="316"/>
      <point x="214" y="355" type="curve" smooth="yes"/>
      <point x="214" y="388"/>
      <point x="238" y="400"/>
      <point x="266" y="400" type="curve" smooth="yes"/>
      <point x="312" y="400"/>
      <point x="333" y="368.928"/>
      <point x="339" y="333" type="curve"/>
      <point x="498" y="333" type="line"/>
      <point x="481" y="454.698"/>
      <point x="399" y="520"/>
      <point x="253" y="520" type="curve" smooth="yes"/>
      <point x="133" y="520"/>
      <point x="48" y="476"/>
    </contour>
  </outline>
</glyph>
<glyph name="ereversedcyr.ss12" format="2">
  <advance width="570"/>
  <anchor x="278" y="520" name="top"/>
  <anchor x="278" y="-20" name="bottom"/>
  <outline>
    <contour>
      <point x="40" y="88" type="line"/>
      <point x="89" y="29"/>
      <point x="159" y="-20"/>
      <point x="256" y="-20" type="curve" smooth="yes"/>
      <point x="435" y="-20"/>
      <point x="531" y="100"/>
      <point x="531" y="255" type="curve" smooth="yes"/>
      <point x="531" y="401"/>
      <point x="435" y="520"/>
      <point x="255" y="520" type="curve" smooth="yes"/>
      <point x="168" y="520"/>
      <point x="90" y="486"/>
      <point x="39" y="425" type="curve"/>
      <point x="48" y="322" type="line"/>
      <point x="115" y="375"/>
      <point x="167" y="397"/>
      <point x="226" y="397" type="curve" smooth="yes"/>
      <point x="291" y="397"/>
      <point x="366" y="353"/>
      <point x="366" y="254" type="curve" smooth="yes"/>
      <point x="366" y="158"/>
      <point x="290" y="104"/>
      <point x="225" y="104" type="curve" smooth="yes"/>
      <point x="164" y="104"/>
      <point x="102" y="131"/>
      <point x="49" y="190" type="curve"/>
    </contour>
    <contour>
      <point x="430" y="299" type="line"/>
      <point x="156" y="299" type="line"/>
      <point x="156" y="203" type="line"/>
      <point x="430" y="203" type="line"/>
    </contour>
  </outline>
</glyph>
<glyph name="five.osf" format="2">
  <advance width="615"/>
  <outline>
    <contour>
      <point x="243" y="420" type="line"/>
      <point x="535" y="420" type="line"/>
      <point x="535" y="550" type="line"/>
      <point x="113" y="550" type="line"/>
      <point x="47" y="103" type="line"/>
      <point x="150.145" y="157"/>
      <point x="223.249" y="183"/>
      <point x="289.342" y="183" type="curve" smooth="yes"/>
      <point x="365.449" y="183"/>
      <point x="401.5" y="149"/>
      <point x="401.5" y="81" type="curve" smooth="yes"/>
      <point x="401.5" y="1"/>
      <point x="351.411" y="-40"/>
      <point x="272.271" y="-40" type="curve" smooth="yes"/>
      <point x="205.152" y="-40"/>
      <point x="167.085" y="-10"/>
      <point x="119" y="47" type="curve"/>
      <point x="24" y="-48" type="line"/>
      <point x="96.9328" y="-129"/>
      <point x="166.868" y="-170"/>
      <point x="280.763" y="-170" type="curve" smooth="yes"/>
      <point x="454.603" y="-170"/>
      <point x="566.5" y="-75"/>
      <point x="566.5" y="82" type="curve" smooth="yes"/>
      <point x="566.5" y="220"/>
      <point x="480.625" y="303"/>
      <point x="334.836" y="303" type="curve" smooth="yes"/>
      <point x="298.888" y="303"/>
      <point x="260.943" y="298"/>
      <point x="222" y="277" type="curve"/>
    </contour>
  </outline>
</glyph>
<glyph name="five.ss10" format="2">
  <advance width="607"/>
  <outline>
    <contour>
      <point x="283" y="111" type="curve" smooth="yes"/>
      <point x="366" y="111"/>
      <point x="411" y="160"/>
      <point x="411" y="250" type="curve" smooth="yes"/>
      <point x="411" y="336"/>
      <point x="370" y="374"/>
      <point x="278" y="374" type="curve" smooth="yes"/>
      <point x="205" y="374"/>
      <point x="127" y="350"/>
      <point x="47" y="308" type="curve"/>
      <point x="130" y="700" type="line"/>
      <point x="555" y="700" type="line"/>
      <point x="536" y="570" type="line"/>
      <point x="273" y="570" type="line"/>
      <point x="250" y="462" type="line"/>
      <point x="278" y="473"/>
      <point x="323" y="477"/>
      <point x="350" y="477" type="curve" smooth="yes"/>
      <point x="483" y="477"/>
      <point x="577" y="381"/>
      <point x="577" y="239" type="curve" smooth="yes"/>
      <point x="577" y="83"/>
      <point x="463" y="-20"/>
      <point x="299" y="-20" type="curve" smooth="yes"/>
      <point x="178" y="-20"/>
      <point x="84" y="36"/>
      <point x="23" y="117" type="curve"/>
      <point x="68" y="275" type="line"/>
      <point x="138" y="159"/>
      <point x="200" y="111"/>
    </contour>
  </outline>
</glyph>
<glyph name="five.ss12" format="2">
  <advance width="604"/>
  <outline>
    <contour>
      <point x="302" y="-20" type="curve" smooth="yes"/>
      <point x="184" y="-20"/>
      <point x="102" y="24"/>
      <point x="26" y="113" type="curve"/>
      <point x="42" y="227" type="line"/>
      <point x="135" y="140"/>
      <point x="193" y="111"/>
      <point x="273" y="111" type="curve" smooth="yes"/>
      <point x="362" y="111"/>
      <point x="409" y="147"/>
      <point x="409" y="232" type="curve" smooth="yes"/>
      <point x="409" y="304"/>
      <point x="376" y="337"/>
      <point x="274" y="337" type="curve" smooth="yes"/>
      <point x="212" y="337"/>
      <point x="146" y="325"/>
      <point x="45" y="283" type="curve"/>
      <point x="134" y="700" type="line"/>
      <point x="552" y="700" type="line"/>
      <point x="526" y="570" type="line"/>
      <point x="276" y="570" type="line"/>
      <point x="247" y="434" type="line"/>
      <point x="274" y="444"/>
      <point x="306" y="451"/>
      <point x="348" y="451" type="curve" smooth="yes"/>
      <point x="493" y="451"/>
      <point x="574" y="370"/>
      <point x="574" y="229" type="curve" smooth="yes"/>
      <point x="574" y="69"/>
      <point x="471" y="-20"/>
    </contour>
  </outline>
</glyph>
<glyph name="germandbls.ss09" format="2">
  <advance width="710"/>
  <outline>
    <contour>
      <point x="672" y="137" type="curve" smooth="yes"/>
      <point x="672" y="39"/>
      <point x="593" y="-20"/>
      <point x="454" y="-20" type="curve" smooth="yes"/>
      <point x="340" y="-20"/>
      <point x="253" y="20"/>
      <point x="242" y="127" type="curve"/>
      <point x="402" y="127" type="line"/>
      <point x="408" y="108"/>
      <point x="412" y="100"/>
      <point x="446" y="100" type="curve" smooth="yes"/>
      <point x="487" y="100"/>
      <point x="507" y="112"/>
      <point x="507" y="137" type="curve" smooth="yes"/>
      <point x="507" y="228"/>
      <point x="289" y="218"/>
      <point x="289" y="380" type="curve" smooth="yes"/>
      <point x="289" y="457"/>
      <point x="378" y="485"/>
      <point x="378" y="563" type="curve" smooth="yes"/>
      <point x="378" y="603"/>
      <point x="355" y="629"/>
      <point x="313" y="629" type="curve" smooth="yes"/>
      <point x="251" y="629"/>
      <point x="224" y="574"/>
      <point x="224" y="487" type="curve" smooth="yes"/>
      <point x="224" y="0" type="line"/>
      <point x="59" y="0" type="line"/>
      <point x="59" y="535" type="line" smooth="yes"/>
      <point x="59" y="685"/>
      <point x="164" y="751"/>
      <point x="303" y="751" type="curve" smooth="yes"/>
      <point x="440" y="751"/>
      <point x="543" y="686"/>
      <point x="543" y="566" type="curve" smooth="yes"/>
      <point x="543" y="454"/>
      <point x="454" y="452"/>
      <point x="454" y="386" type="curve" smooth="yes"/>
      <point x="454" y="282"/>
      <point x="672" y="299"/>
    </contour>
  </outline>
</glyph>
<glyph name="k.ss11" format="2">
  <advance width="592"/>
  <anchor x="149" y="750" name="top"/>
  <anchor x="296" y="-20" name="bottom"/>
  <outline>
    <contour>
      <point x="229" y="0" type="line"/>
      <point x="229" y="700" type="line"/>
      <point x="64" y="700" type="line"/>
      <point x="64" y="0" type="line"/>
    </contour>
    <contour>
      <point x="327" y="360" type="line" name="iv02"/>
      <point x="120" y="360" type="line"/>
      <point x="121" y="240" type="line"/>
      <point x="308" y="240" type="line" name="iv01"/>
      <point x="400" y="0" type="line" name="ab02"/>
      <point x="585" y="0" type="line"/>
      <point x="447" y="283" type="line"/>
      <point x="572" y="500" type="line" name="av02"/>
      <point x="409" y="500" type="line"/>
    </contour>
  </outline>
</glyph>
<glyph name="l.ss11" format="2">
  <advance width="272"/>
  <anchor x="136" y="-20" name="bottom"/>
  <anchor x="136" y="750" name="top"/>
  <anchor x="262" y="700" name="topright"/>
  <outline>
    <contour>
      <point x="219" y="700" type="line"/>
      <point x="54" y="700" type="line"/>
      <point x="54" y="0" type="line"/>
      <point x="219" y="0" type="line"/>
    </contour>
  </outline>
</glyph>
<glyph name="one.ss09" format="2">
  <advance width="544"/>
  <outline>
    <contour>
      <point x="202" y="700" type="line"/>
      <point x="202" y="616"/>
      <point x="144.2" y="560"/>
      <point x="42.5" y="560" type="curve"/>
      <point x="42.5" y="430" type="line"/>
      <point x="141.2" y="430"/>
      <point x="197" y="471.2"/>
      <point x="197" y="533" type="curve"/>
      <point x="196.5" y="0" type="line"/>
      <point x="361.5" y="0" type="line"/>
      <point x="362" y="700" type="line"/>
    </contour>
    <contour>
      <point x="42" y="0" type="line"/>
      <point x="502" y="0" type="line"/>
      <point x="502" y="130" type="line"/>
      <point x="42" y="130" type="line"/>
    </contour>
  </outline>
</glyph>
<glyph name="question.ss10" format="2">
  <advance width="551"/>
  <outline>
    <contour>
      <point x="241" y="-20" type="curve" smooth="yes"/>
      <point x="293" y="-20"/>
      <point x="332" y="21"/>
      <point x="332" y="69" type="curve" smooth="yes"/>
      <point x="332" y="121"/>
      <point x="293" y="160"/>
      <point x="241" y="160" type="curve" smooth="yes"/>
      <point x="190" y="160"/>
      <point x="152" y="121"/>
      <point x="152" y="69" type="curve" smooth="yes"/>
      <point x="152" y="21"/>
      <point x="190" y="-20"/>
    </contour>
    <contour>
      <point x="275" y="636" type="curve" smooth="yes"/>
      <point x="191" y="636"/>
      <point x="140" y="588"/>
      <point x="70" y="471" type="curve"/>
      <point x="25" y="630" type="line"/>
      <point x="79" y="711"/>
      <point x="164" y="767"/>
      <point x="287" y="767" type="curve" smooth="yes"/>
      <point x="439" y="767"/>
      <point x="521" y="690"/>
      <point x="521" y="567" type="curve" smooth="yes"/>
      <point x="521" y="475"/>
      <point x="448" y="388"/>
      <point x="324" y="332" type="curve"/>
      <point x="324" y="250" type="line"/>
      <point x="158" y="250" type="line"/>
      <point x="158" y="365" type="line"/>
      <point x="299" y="440"/>
      <point x="355" y="496"/>
      <point x="355" y="556" type="curve" smooth="yes"/>
      <point x="355" y="612"/>
      <point x="335" y="636"/>
    </contour>
  </outline>
</glyph>
<glyph name="sigmafinal.ss10" format="2">
  <advance width="595"/>
  <anchor x="297" y="519" name="topgr"/>
  <outline>
    <contour>
      <point x="327" y="396" type="curve" smooth="yes"/>
      <point x="392" y="396"/>
      <point x="447" y="366"/>
      <point x="498" y="297" type="curve"/>
      <point x="537" y="426" type="line"/>
      <point x="494" y="483"/>
      <point x="405" y="520"/>
      <point x="306" y="520" type="curve" smooth="yes"/>
      <point x="140" y="520"/>
      <point x="29" y="416"/>
      <point x="29" y="249" type="curve" smooth="yes"/>
      <point x="29" y="90"/>
      <point x="130" y="-19"/>
      <point x="276" y="-19" type="curve" smooth="yes"/>
      <point x="353" y="-19"/>
      <point x="389" y="-49"/>
      <point x="389" y="-103" type="curve" smooth="yes"/>
      <point x="389" y="-142"/>
      <point x="371" y="-171"/>
      <point x="349" y="-200" type="curve"/>
      <point x="502" y="-200" type="line"/>
      <point x="524" y="-176"/>
      <point x="553" y="-130"/>
      <point x="553" y="-69" type="curve" smooth="yes"/>
      <point x="553" y="34"/>
      <point x="472" y="104"/>
      <point x="346" y="104" type="curve" smooth="yes"/>
      <point x="236" y="104"/>
      <point x="194" y="158"/>
      <point x="194" y="248" type="curve" smooth="yes"/>
      <point x="194" y="348"/>
      <point x="245" y="396"/>
    </contour>
  </outline>
</glyph>
<glyph name="six.ss10" format="2">
  <advance width="667"/>
  <outline>
    <contour>
      <point x="458" y="230" type="curve" smooth="yes"/>
      <point x="458" y="299"/>
      <point x="408" y="342"/>
      <point x="337" y="342" type="curve" smooth="yes"/>
      <point x="261" y="342"/>
      <point x="218" y="297"/>
      <point x="218" y="228" type="curve" smooth="yes"/>
      <point x="218" y="156"/>
      <point x="267" y="110"/>
      <point x="337" y="110" type="curve" smooth="yes"/>
      <point x="409" y="110"/>
      <point x="458" y="158"/>
    </contour>
    <contour>
      <point x="361" y="589" type="curve" smooth="yes"/>
      <point x="248.884" y="589"/>
      <point x="187.391" y="517.517"/>
      <point x="192.183" y="348.535" type="curve"/>
      <point x="172.709" y="370.081" type="line"/>
      <point x="219.076" y="427.841"/>
      <point x="287.247" y="461"/>
      <point x="376" y="461" type="curve" smooth="yes"/>
      <point x="523" y="461"/>
      <point x="624" y="365"/>
      <point x="624" y="226" type="curve" smooth="yes"/>
      <point x="624" y="88"/>
      <point x="525" y="-20"/>
      <point x="345" y="-20" type="curve" smooth="yes"/>
      <point x="153" y="-20"/>
      <point x="42" y="103"/>
      <point x="42" y="339" type="curve" smooth="yes"/>
      <point x="42" y="578"/>
      <point x="156" y="720"/>
      <point x="348" y="720" type="curve" smooth="yes"/>
      <point x="469" y="720"/>
      <point x="563" y="666"/>
      <point x="622" y="583" type="curve"/>
      <point x="577" y="424" type="line"/>
      <point x="502" y="544"/>
      <point x="434" y="589"/>
    </contour>
  </outline>
</glyph>
<glyph name="three.osf" format="2">
  <advance width="578"/>
  <outline>
    <contour>
      <point x="24" y="-63" type="line"/>
      <point x="87" y="-130"/>
      <point x="173" y="-166"/>
      <point x="290" y="-166" type="curve" smooth="yes"/>
      <point x="473" y="-166"/>
      <point x="542" y="-78"/>
      <point x="542" y="35" type="curve" smooth="yes"/>
      <point x="542" y="178"/>
      <point x="430" y="241"/>
      <point x="192" y="221" type="curve"/>
      <point x="192" y="141" type="line"/>
      <point x="321" y="141"/>
      <point x="377" y="116"/>
      <point x="377" y="48" type="curve" smooth="yes"/>
      <point x="377" y="-8"/>
      <point x="338" y="-36"/>
      <point x="274" y="-36" type="curve" smooth="yes"/>
      <point x="217" y="-36"/>
      <point x="173" y="-14"/>
      <point x="122" y="35" type="curve"/>
    </contour>
    <contour>
      <point x="280" y="442" type="curve" smooth="yes"/>
      <point x="330" y="442"/>
      <point x="355" y="421"/>
      <point x="355" y="377" type="curve" smooth="yes"/>
      <point x="355" y="333"/>
      <point x="328" y="292"/>
      <point x="192" y="292" type="curve"/>
      <point x="192" y="214" type="line"/>
      <point x="439" y="204"/>
      <point x="520" y="283"/>
      <point x="520" y="386" type="curve" smooth="yes"/>
      <point x="520" y="482"/>
      <point x="449" y="573"/>
      <point x="286" y="573" type="curve" smooth="yes"/>
      <point x="155" y="573"/>
      <point x="80" y="518"/>
      <point x="42" y="481" type="curve"/>
      <point x="140" y="383" type="line"/>
      <point x="193" y="421"/>
      <point x="225" y="442"/>
    </contour>
  </outline>
</glyph>
<glyph name="three.ss10.osf" format="2">
  <advance width="550"/>
  <outline>
    <contour>
      <point x="267" y="442" type="curve" smooth="yes"/>
      <point x="186" y="442"/>
      <point x="108" y="367"/>
      <point x="55" y="277" type="curve"/>
      <point x="10" y="436" type="line"/>
      <point x="67" y="517"/>
      <point x="156" y="573"/>
      <point x="276" y="573" type="curve" smooth="yes"/>
      <point x="431" y="573"/>
      <point x="500" y="473.506"/>
      <point x="500" y="370.802" type="curve" smooth="yes"/>
      <point x="500" y="263.818"/>
      <point x="424" y="190"/>
      <point x="192" y="190" type="curve"/>
      <point x="192" y="270" type="line"/>
      <point x="312" y="270"/>
      <point x="337" y="315.633"/>
      <point x="337" y="365.946" type="curve" smooth="yes"/>
      <point x="337" y="417.429"/>
      <point x="310" y="442"/>
    </contour>
    <contour>
      <point x="273" y="-37" type="curve" smooth="yes"/>
      <point x="326" y="-37"/>
      <point x="357" y="-3.60606"/>
      <point x="357" y="53.9697" type="curve" smooth="yes"/>
      <point x="357" y="109.242"/>
      <point x="329" y="153"/>
      <point x="192" y="153" type="curve"/>
      <point x="192" y="233" type="line"/>
      <point x="439" y="233"/>
      <point x="520" y="156.2"/>
      <point x="520" y="46.3333" type="curve" smooth="yes"/>
      <point x="520" y="-62.4667"/>
      <point x="442" y="-167"/>
      <point x="281" y="-167" type="curve" smooth="yes"/>
      <point x="160" y="-167"/>
      <point x="71" y="-111"/>
      <point x="14" y="-30" type="curve"/>
      <point x="59" y="128" type="line"/>
      <point x="117" y="32"/>
      <point x="191" y="-37"/>
    </contour>
  </outline>
</glyph>
<glyph name="zecyr.ss10" format="2">
  <advance width="500"/>
  <anchor x="270" y="-20" name="bottom"/>
  <anchor x="250" y="520" name="top"/>
  <outline>
    <contour>
      <point x="231" y="-20" type="curve" smooth="yes"/>
      <point x="371" y="-20"/>
      <point x="458" y="43"/>
      <point x="458" y="133" type="curve" smooth="yes"/>
      <point x="458" y="225"/>
      <point x="411" y="250"/>
      <point x="253" y="260" type="curve"/>
      <point x="387" y="274"/>
      <point x="440" y="310"/>
      <point x="440" y="386" type="curve" smooth="yes"/>
      <point x="440" y="478"/>
      <point x="353" y="520"/>
      <point x="231" y="520" type="curve" smooth="yes"/>
      <point x="145" y="520"/>
      <point x="65" y="485"/>
      <point x="25" y="430" type="curve"/>
      <point x="62" y="301" type="line"/>
      <point x="112" y="377.768"/>
      <point x="159" y="396"/>
      <point x="216" y="396" type="curve" smooth="yes"/>
      <point x="249" y="396"/>
      <point x="278" y="383.584"/>
      <point x="278" y="360.663" type="curve" smooth="yes"/>
      <point x="278" y="332.011"/>
      <point x="255" y="311"/>
      <point x="150" y="311" type="curve"/>
      <point x="150" y="205" type="line"/>
      <point x="249" y="205"/>
      <point x="293" y="192.495"/>
      <point x="293" y="148.248" type="curve" smooth="yes"/>
      <point x="293" y="117.467"/>
      <point x="262" y="104"/>
      <point x="217" y="104" type="curve" smooth="yes"/>
      <point x="159" y="104"/>
      <point x="112" y="122.232"/>
      <point x="62" y="199" type="curve"/>
      <point x="25" y="70" type="line"/>
      <point x="65" y="15"/>
      <point x="145" y="-20"/>
    </contour>
  </outline>
</glyph>
